<svg width="110" height="32" viewBox="0 0 110 32" fill="none" xmlns="http://www.w3.org/2000/svg">
<g clip-path="url(#clip0_35_188)">
<circle cx="14.4999" cy="14.5" r="11.5" stroke="black" stroke-width="2"/>
<path d="M4.99994 21.4997C2.00001 23.4997 1.49998 28.4998 8.49999 28.9999C15.5 29.5 30.5 26 32.5 29" stroke="black" stroke-width="2"/>
<path d="M5.32014 7.6161C14.7323 7.05021 22.966 15.1571 23.1233 22.4521" stroke="black" stroke-width="2"/>
<path d="M3.78109 9.6509C12.0603 10.0925 20.1458 17.7869 21 24" stroke="black" stroke-width="2"/>
<path d="M3.00001 13.5619C10.4929 13.5651 17.4548 20.291 17.9258 26" stroke="black" stroke-width="2"/>
<path d="M7.99996 24.5001C8.25187 21.6769 8.99997 18.0001 11 16" stroke="black" stroke-width="2"/>
<path d="M11.4283 26.0002C11.451 23.4748 12.2485 20.9501 13.4283 19.0001" stroke="black" stroke-width="2"/>
<path d="M15 26C15.0304 24.2002 15.6126 22.3964 16.4636 21" stroke="black" stroke-width="2"/>
<path d="M6 7C7.36364 6.6345 10.7634 5.98054 13.6948 6.00044C16.7679 6.02131 19.5 7 21 8" stroke="black" stroke-width="2"/>
<path d="M15.5 10.5001C18 7.58208 24.0679 7.58215 24.0679 7.58215" stroke="black" stroke-width="2"/>
<path d="M19 12.5C21.4999 11 25.4999 10.9999 25.4999 10.9999" stroke="black" stroke-width="2"/>
<path d="M20.9999 16C22.9967 13.8722 26.6548 14.644 26.6548 14.644" stroke="black" stroke-width="2"/>
<path d="M3.5 18.5C4 18.5001 7 15.9999 10.5 16.5" stroke="black" stroke-width="2"/>
<path d="M21.9999 17C21.9999 17 23.9999 17 24.7496 18L25.4999 18.5" stroke="black" stroke-width="2"/>
<path d="M28.5 26.9998C30.2088 28.3953 32 28.9998 33.5 28.4998C35 27.9998 36.5 25.5 34.4999 23.4999" stroke="black" stroke-width="2"/>
<path d="M30.3095 25.624C30.3095 26.552 30.7041 27.016 31.4935 27.016C32.3575 27.016 32.9388 26.7173 33.2375 26.12C33.3441 25.9067 33.3975 25.6347 33.3975 25.304C33.3975 24.9627 33.3175 24.648 33.1575 24.36C32.8908 23.9013 32.4321 23.3947 31.7815 22.84C30.7041 21.9227 30.1655 20.9733 30.1655 19.992C30.1655 19 30.4748 18.2373 31.0935 17.704C31.7121 17.1707 32.4215 16.904 33.2215 16.904C34.0215 16.904 34.6561 17.1067 35.1255 17.512C35.5948 17.9173 35.8295 18.5253 35.8295 19.336C35.8295 19.8693 35.6481 20.3333 35.2855 20.728C34.9335 21.1227 34.4641 21.368 33.8775 21.464C34.1441 21.688 34.4108 21.9173 34.6775 22.152C34.9335 22.3867 35.1681 22.6427 35.3815 22.92C35.8508 23.5493 36.0855 24.3013 36.0855 25.176C36.0855 25.784 35.9415 26.3333 35.6535 26.824C35.3761 27.3147 35.0081 27.7307 34.5495 28.072C34.1015 28.4027 33.5948 28.6587 33.0295 28.84C32.4641 29.0213 31.9361 29.112 31.4455 29.112C30.4001 29.112 29.5895 28.872 29.0135 28.392C28.3415 27.848 28.0055 27.064 28.0055 26.04C28.0055 25.368 28.2241 24.7173 28.6615 24.088C29.0988 23.4587 29.5628 23.144 30.0535 23.144C30.4375 23.144 30.6295 23.2613 30.6295 23.496C30.6295 23.8373 30.5761 24.1787 30.4695 24.52C30.3628 24.8507 30.3095 25.2187 30.3095 25.624ZM33.4135 21.08C34.0215 20.472 34.3255 19.8373 34.3255 19.176C34.3255 18.9733 34.2188 18.8027 34.0055 18.664C33.7708 18.536 33.5255 18.472 33.2695 18.472C32.6935 18.472 32.2775 18.6587 32.0215 19.032C32.1495 19.4907 32.3361 19.88 32.5815 20.2C32.8375 20.52 33.1148 20.8133 33.4135 21.08ZM39.7385 21.96C39.7385 22.6747 39.6105 23.4853 39.3545 24.392C39.3758 24.7333 39.3865 25.064 39.3865 25.384C39.4078 26.0667 39.4931 26.536 39.6425 26.792C39.7491 26.9307 39.8878 27 40.0585 27C40.3891 27 40.7998 26.7653 41.2905 26.296C40.9171 25.4107 40.7305 24.6107 40.7305 23.896C40.7305 22.4347 41.4185 21.704 42.7945 21.704C43.2638 21.704 43.6531 21.8427 43.9625 22.12C44.2825 22.3867 44.4425 22.7227 44.4425 23.128C44.4425 23.9813 43.9678 25.0053 43.0185 26.2C43.4131 26.6693 43.7331 26.9413 43.9785 27.016C44.3305 27.016 44.8585 26.3653 45.5625 25.064C45.4345 24.584 45.3705 24.136 45.3705 23.72C45.3705 22.9627 45.4878 22.408 45.7225 22.056C46.0105 21.608 46.4851 21.384 47.1465 21.384C47.8185 21.384 48.1971 21.656 48.2825 22.2C48.3038 22.36 48.3145 22.5307 48.3145 22.712C48.3145 23.3947 47.9358 24.3387 47.1785 25.544C47.4451 25.928 47.6958 26.1573 47.9305 26.232C48.4211 26.232 48.8371 26.0667 49.1785 25.736C49.3065 25.6187 49.4131 25.512 49.4985 25.416C49.5945 25.3093 49.6905 25.256 49.7865 25.256C49.9358 25.256 50.0105 25.432 50.0105 25.784C50.0105 26.4347 49.8185 26.9147 49.4345 27.224C49.0505 27.5333 48.5491 27.688 47.9305 27.688C47.3118 27.688 46.7731 27.3893 46.3145 26.792C45.7598 27.5173 45.3011 28.024 44.9385 28.312C44.2771 28.856 43.7598 29.128 43.3865 29.128C43.2051 29.128 42.9705 28.9787 42.6825 28.68C42.4051 28.3707 42.1278 27.9707 41.8505 27.48C41.3385 27.96 40.8318 28.3547 40.3305 28.664C39.8291 28.9733 39.4078 29.128 39.0665 29.128C38.4478 29.128 37.9251 27.784 37.4985 25.096C37.3491 24.1787 37.2745 23.5493 37.2745 23.208C37.2958 22.504 37.3918 22.0133 37.5625 21.736C37.7971 21.3947 38.2558 21.224 38.9385 21.224C39.1945 21.224 39.3918 21.304 39.5305 21.464C39.6691 21.6133 39.7385 21.7787 39.7385 21.96ZM42.4745 24.84C42.8265 24.296 43.0025 23.864 43.0025 23.544C43.0025 23.2133 42.8905 23.048 42.6665 23.048C42.5171 23.048 42.4211 23.1333 42.3785 23.304C42.3465 23.464 42.3305 23.6773 42.3305 23.944C42.3305 24.2107 42.3785 24.5093 42.4745 24.84ZM59.1126 25.224C59.3046 25.224 59.4006 25.4693 59.4006 25.96C59.4006 26.2267 59.2886 26.552 59.0646 26.936C58.8406 27.3093 58.5473 27.656 58.1846 27.976C57.8326 28.2853 57.4379 28.5413 57.0006 28.744C56.5633 28.9467 56.1366 29.048 55.7206 29.048C55.1553 29.048 54.7766 28.552 54.5846 27.56C54.3073 28.0187 53.9446 28.3973 53.4966 28.696C53.0486 28.984 52.4459 29.128 51.6886 29.128C50.9419 29.128 50.3393 28.8933 49.8806 28.424C49.4219 27.9547 49.1979 27.384 49.2086 26.712C49.2086 24.8987 49.8113 23.4693 51.0166 22.424C51.5286 21.9867 52.0033 21.6987 52.4406 21.56C52.8886 21.4213 53.3579 21.352 53.8486 21.352C54.3393 21.352 54.7393 21.4373 55.0486 21.608C55.1979 21.2987 55.3686 21.144 55.5606 21.144C55.9339 21.144 56.2859 21.3093 56.6166 21.64C56.9579 21.96 57.1286 22.264 57.1286 22.552C56.9793 22.904 56.7606 23.3253 56.4726 23.816C56.3873 24.3067 56.3446 24.9947 56.3446 25.88C56.3446 26.7653 56.4566 27.208 56.6806 27.208C56.9579 27.208 57.6299 26.6533 58.6966 25.544C58.8886 25.3307 59.0273 25.224 59.1126 25.224ZM51.5606 26.184C51.5606 27.0053 51.8646 27.416 52.4726 27.416C53.1233 27.4053 53.6619 27.0587 54.0886 26.376C54.2379 26.1413 54.3606 25.8533 54.4566 25.512C54.4566 24.3173 54.5633 23.2933 54.7766 22.44C53.9126 22.6107 53.1606 23.0267 52.5206 23.688C51.8806 24.3493 51.5606 25.1813 51.5606 26.184ZM59.3051 28.136C59.1878 27.848 59.1024 27.5173 59.0491 27.144C58.9958 26.76 58.9691 26.2267 58.9691 25.544C58.9691 24.8613 59.0971 23.9387 59.3531 22.776H58.6331C58.5051 22.776 58.4411 22.7227 58.4411 22.616C58.4411 22.36 58.4624 22.152 58.5051 21.992C58.5584 21.8213 58.6758 21.6293 58.8571 21.416H59.2411C59.3904 21.416 59.5504 21.4107 59.7211 21.4C60.2331 19.7573 60.7558 18.936 61.2891 18.936C61.7158 18.9467 62.0144 19.2187 62.1851 19.752C62.2278 19.9013 62.2758 20.0613 62.3291 20.232L61.6731 21.384C62.4198 21.4053 62.8891 21.416 63.0811 21.416C63.2838 21.416 63.3904 21.4373 63.4011 21.48C63.4224 21.512 63.4331 21.5653 63.4331 21.64C63.4331 21.832 63.3851 22.072 63.2891 22.36C63.2038 22.648 63.1024 22.7867 62.9851 22.776L61.3851 22.696C61.1611 23.9973 61.0491 25.0747 61.0491 25.928C61.0491 26.7813 61.1718 27.208 61.4171 27.208C61.6198 27.208 61.9878 27.0427 62.5211 26.712C63.0544 26.3707 63.4384 26.0453 63.6731 25.736C63.9078 25.4267 64.0998 25.272 64.2491 25.272C64.3984 25.272 64.4731 25.4533 64.4731 25.816C64.4731 26.1787 64.3451 26.552 64.0891 26.936C63.8331 27.3093 63.5078 27.656 63.1131 27.976C62.7291 28.2853 62.2971 28.5413 61.8171 28.744C61.3478 28.9467 60.9371 29.048 60.5851 29.048C60.2331 29.048 59.9611 28.968 59.7691 28.808C59.5878 28.6373 59.4331 28.4133 59.3051 28.136ZM70.0312 25.224C70.2232 25.224 70.3192 25.3893 70.3192 25.72C70.3192 26.04 70.2339 26.3867 70.0632 26.76C69.9032 27.1333 69.6526 27.496 69.3112 27.848C68.9806 28.1893 68.5539 28.4827 68.0312 28.728C67.5086 28.9733 66.8899 29.096 66.1752 29.096C65.4712 29.096 64.8526 28.888 64.3192 28.472C63.7859 28.0453 63.5192 27.4373 63.5192 26.648C63.5192 25.848 63.6419 25.128 63.8872 24.488C64.1432 23.8373 64.4739 23.2773 64.8792 22.808C65.2952 22.3387 65.7646 21.976 66.2872 21.72C66.8099 21.4533 67.3059 21.32 67.7752 21.32C68.5966 21.32 69.0072 21.6453 69.0072 22.296C69.0072 22.6693 68.9272 22.968 68.7672 23.192C68.6179 23.416 68.4632 23.528 68.3032 23.528C68.0899 23.528 67.9032 23.4533 67.7432 23.304C67.5832 23.1547 67.4072 23.08 67.2152 23.08C67.0232 23.0693 66.8366 23.16 66.6552 23.352C66.4846 23.544 66.3406 23.7893 66.2232 24.088C65.9886 24.6853 65.8712 25.384 65.8712 26.184C65.8819 26.568 66.0579 26.856 66.3992 27.048C66.6339 27.176 66.9112 27.2453 67.2312 27.256C67.5512 27.256 67.8552 27.1493 68.1432 26.936C68.4419 26.7227 68.7139 26.4933 68.9592 26.248C69.2046 25.992 69.4179 25.7573 69.5992 25.544C69.7912 25.3307 69.9352 25.224 70.0312 25.224ZM74.851 23.624C74.851 23.24 74.6216 23.048 74.163 23.048C73.715 23.048 73.2723 23.4 72.835 24.104C72.3976 24.7973 72.1256 25.5067 72.019 26.232C72.0403 26.4773 72.0616 26.7227 72.083 26.968C72.1043 27.2133 72.115 27.4533 72.115 27.688C72.115 28.2533 71.9283 28.6373 71.555 28.84C71.3843 28.936 71.219 29.0267 71.059 29.112C70.9096 29.1973 70.7336 29.24 70.531 29.24C70.3283 29.24 70.147 29.1067 69.987 28.84C69.8376 28.5627 69.763 28.136 69.763 27.56C69.763 25.9493 69.8803 24.552 70.115 23.368C70.4776 21.5333 71.1976 19.5707 72.275 17.48C72.4243 17.192 72.643 17.0533 72.931 17.064C73.219 17.064 73.4536 17.2613 73.635 17.656C73.8163 18.0507 73.9016 18.3813 73.891 18.648C73.891 18.9147 73.8483 19.176 73.763 19.432C73.6883 19.6773 73.587 19.9227 73.459 20.168C73.3416 20.4027 73.203 20.648 73.043 20.904C72.8936 21.1493 72.7443 21.416 72.595 21.704L72.355 22.856C72.771 22.1627 73.331 21.6987 74.035 21.464C74.291 21.3787 74.5736 21.336 74.883 21.336C75.6083 21.336 76.1576 21.5013 76.531 21.832C76.9043 22.152 77.091 22.6107 77.091 23.208C77.091 23.7947 77.011 24.392 76.851 25C76.7016 25.608 76.5896 26.0453 76.515 26.312C76.451 26.568 76.419 26.7813 76.419 26.952C76.419 27.1227 76.4776 27.208 76.595 27.208C76.755 27.208 76.9523 27.1067 77.187 26.904C77.4216 26.7013 77.6563 26.4827 77.891 26.248C78.1256 26.0027 78.339 25.7787 78.531 25.576C78.7336 25.3733 78.8723 25.272 78.947 25.272C79.0963 25.272 79.171 25.4533 79.171 25.816C79.171 26.5627 78.803 27.2827 78.067 27.976C76.8296 28.7013 76.0403 29.064 75.699 29.064C75.667 29.064 75.6456 29.0587 75.635 29.048C74.7816 29.048 74.355 28.3653 74.355 27C74.355 26.4133 74.4083 25.8747 74.515 25.384C74.6323 24.8933 74.7176 24.536 74.771 24.312C74.8243 24.088 74.851 23.8587 74.851 23.624Z" fill="black"/>
<path d="M36.248 8.864C37.176 8.864 37.64 9.09867 37.64 9.568C37.64 10.112 37.1067 10.384 36.04 10.384C35.8053 10.384 35.5493 10.3413 35.272 10.256C34.9627 10.4693 34.7227 10.736 34.552 11.056C34.392 11.376 34.312 11.84 34.312 12.448C34.312 13.0453 34.5467 13.488 35.016 13.776C35.496 14.064 36.056 14.208 36.696 14.208C37.3467 14.208 37.8693 14.1067 38.264 13.904C38.6693 13.6907 39.0213 13.4613 39.32 13.216C39.6187 12.9707 39.8587 12.7467 40.04 12.544C40.232 12.3307 40.3707 12.224 40.456 12.224C40.5413 12.224 40.6107 12.2827 40.664 12.4C40.7173 12.5067 40.744 12.6507 40.744 12.832C40.744 13.6853 40.2693 14.4373 39.32 15.088C38.3813 15.728 37.256 16.048 35.944 16.048C33.896 16.048 32.568 15.456 31.96 14.272C31.7467 13.856 31.64 13.3547 31.64 12.768C31.64 11.2427 32.4027 10.176 33.928 9.568C33.1493 9.024 32.76 8.20267 32.76 7.104C32.76 6.58133 32.904 6.096 33.192 5.648C32.9253 5.34933 32.7067 5.03467 32.536 4.704C32.376 4.37333 32.296 4.12267 32.296 3.952C32.296 3.65333 32.4027 3.504 32.616 3.504C32.7653 3.504 32.9467 3.62133 33.16 3.856C33.384 4.08 33.5653 4.26133 33.704 4.4C33.8427 4.53867 33.9867 4.65067 34.136 4.736C35.0427 4.18133 36.1093 3.904 37.336 3.904C38.5627 3.904 39.3787 4.24533 39.784 4.928C39.9333 5.184 40.008 5.49867 40.008 5.872C40.008 6.43733 39.7627 6.912 39.272 7.296C38.7813 7.68 38.136 7.872 37.336 7.872C36.536 7.872 35.7893 7.616 35.096 7.104C35.0853 7.14667 35.08 7.18933 35.08 7.232V7.584C35.08 7.776 35.1387 8.00533 35.256 8.272C35.384 8.528 35.5387 8.74133 35.72 8.912C35.88 8.88 36.056 8.864 36.248 8.864ZM38.232 6.112C38.232 5.696 37.8907 5.488 37.208 5.488C36.5253 5.488 35.976 5.696 35.56 6.112C36.136 6.464 36.7227 6.64 37.32 6.64C37.928 6.64 38.232 6.464 38.232 6.112ZM42.0768 8.016C42.4608 8.016 42.8234 8.384 43.1648 9.12C43.6661 8.59733 44.2848 8.336 45.0208 8.336C45.7674 8.336 46.3274 8.50133 46.7008 8.832C47.0741 9.152 47.2608 9.61067 47.2608 10.208C47.2608 10.7947 47.1808 11.392 47.0208 12C46.8714 12.608 46.7594 13.0453 46.6848 13.312C46.6208 13.568 46.5888 13.7813 46.5888 13.952C46.5888 14.1227 46.6474 14.208 46.7648 14.208C46.9248 14.208 47.1221 14.1067 47.3568 13.904C47.5914 13.7013 47.8261 13.4827 48.0608 13.248C48.2954 13.0027 48.5088 12.7787 48.7008 12.576C48.9034 12.3733 49.0421 12.272 49.1168 12.272C49.2661 12.272 49.3408 12.4533 49.3408 12.816C49.3408 13.5627 48.9728 14.2827 48.2368 14.976C46.9994 15.7013 46.2101 16.064 45.8688 16.064C45.8368 16.064 45.8154 16.0587 45.8048 16.048C44.9514 16.048 44.5248 15.3653 44.5248 14C44.5248 13.4133 44.5781 12.8747 44.6848 12.384C44.8021 11.8933 44.8874 11.536 44.9408 11.312C44.9941 11.088 45.0208 10.8587 45.0208 10.624C45.0208 10.24 44.7968 10.048 44.3488 10.048C43.9114 10.048 43.4901 10.3787 43.0848 11.04C42.6901 11.6907 42.4234 12.368 42.2848 13.072V13.184C42.2848 13.5467 42.3381 13.92 42.4448 14.304C42.5621 14.688 42.6208 14.9547 42.6208 15.104C42.6208 15.4667 42.1674 15.824 41.2608 16.176C41.1221 16.2293 40.9994 16.256 40.8928 16.256C40.6261 16.256 40.4394 16.1173 40.3328 15.84C40.2368 15.5627 40.1888 15.1307 40.1888 14.544C40.1888 13.0293 40.2474 11.936 40.3648 11.264C40.5248 10.2613 40.8874 9.328 41.4528 8.464C41.6448 8.16533 41.8528 8.016 42.0768 8.016ZM54.6705 8.72C54.8198 8.25067 55.0598 8.016 55.3905 8.016C55.6892 8.02667 55.9718 8.24 56.2385 8.656C56.5052 9.06133 56.6385 9.376 56.6385 9.6C56.6172 10.0373 56.4838 10.736 56.2385 11.696C55.9932 12.6453 55.6465 13.8827 55.1985 15.408C55.9025 14.864 56.5958 14.1547 57.2785 13.28C57.5132 12.9813 57.7105 12.7413 57.8705 12.56C58.0412 12.368 58.1798 12.272 58.2865 12.272C58.4358 12.272 58.5105 12.4427 58.5105 12.784C58.5105 13.456 58.1318 14.24 57.3745 15.136C56.6278 16.032 55.7105 16.7307 54.6225 17.232C54.4945 17.6587 54.3558 18.064 54.2065 18.448C54.0572 18.832 53.8652 19.168 53.6305 19.456C53.1185 20.0747 52.3398 20.384 51.2945 20.384C50.5905 20.384 49.9878 20.1813 49.4865 19.776C48.9958 19.3707 48.7505 18.864 48.7505 18.256C48.7505 17.9253 48.8572 17.664 49.0705 17.472C49.2945 17.28 49.5985 17.1253 49.9825 17.008C50.3665 16.8907 50.8145 16.7893 51.3265 16.704C51.8492 16.6187 52.4038 16.512 52.9905 16.384C53.0438 16.2027 53.0865 16.0267 53.1185 15.856C53.1612 15.6747 53.2038 15.4933 53.2465 15.312C52.6598 15.856 51.9398 16.128 51.0865 16.128C50.2438 16.128 49.5932 15.8933 49.1345 15.424C48.6758 14.9547 48.4518 14.384 48.4625 13.712C48.4625 11.8987 49.0652 10.4693 50.2705 9.424C51.1025 8.70933 51.9665 8.352 52.8625 8.352C53.1718 8.352 53.5025 8.38933 53.8545 8.464C54.2172 8.53867 54.4892 8.624 54.6705 8.72ZM50.8145 13.184C50.8145 14.0053 51.1185 14.416 51.7265 14.416C52.0678 14.416 52.4145 14.288 52.7665 14.032C53.1185 13.776 53.4012 13.36 53.6145 12.784C53.7745 12.0373 53.9398 11.3493 54.1105 10.72C54.2918 10.0907 54.4145 9.65333 54.4785 9.408C53.5825 9.52533 52.7452 9.92533 51.9665 10.608C51.1985 11.2907 50.8145 12.1493 50.8145 13.184ZM52.4945 17.856C52.1105 17.9307 51.7745 17.9893 51.4865 18.032C51.1985 18.0747 50.9585 18.112 50.7665 18.144C50.5852 18.176 50.4465 18.2133 50.3505 18.256C50.2652 18.2987 50.2225 18.368 50.2225 18.464C50.2225 18.656 50.3398 18.8213 50.5745 18.96C50.8198 19.0987 51.0598 19.1627 51.2945 19.152C51.6998 19.152 52.0998 18.72 52.4945 17.856ZM67.5384 12.224C67.7304 12.224 67.8264 12.4693 67.8264 12.96C67.8264 13.2267 67.7144 13.552 67.4904 13.936C67.2664 14.3093 66.973 14.656 66.6104 14.976C66.2584 15.2853 65.8637 15.5413 65.4264 15.744C64.989 15.9467 64.5624 16.048 64.1464 16.048C63.581 16.048 63.2024 15.552 63.0104 14.56C62.733 15.0187 62.3704 15.3973 61.9224 15.696C61.4744 15.984 60.8717 16.128 60.1144 16.128C59.3677 16.128 58.765 15.8933 58.3064 15.424C57.8477 14.9547 57.6237 14.384 57.6344 13.712C57.6344 11.8987 58.237 10.4693 59.4424 9.424C59.9544 8.98667 60.429 8.69867 60.8664 8.56C61.3144 8.42133 61.7837 8.352 62.2744 8.352C62.765 8.352 63.165 8.43733 63.4744 8.608C63.6237 8.29867 63.7944 8.144 63.9864 8.144C64.3597 8.144 64.7117 8.30933 65.0424 8.64C65.3837 8.96 65.5544 9.264 65.5544 9.552C65.405 9.904 65.1864 10.3253 64.8984 10.816C64.813 11.3067 64.7704 11.9947 64.7704 12.88C64.7704 13.7653 64.8824 14.208 65.1064 14.208C65.3837 14.208 66.0557 13.6533 67.1224 12.544C67.3144 12.3307 67.453 12.224 67.5384 12.224ZM59.9864 13.184C59.9864 14.0053 60.2904 14.416 60.8984 14.416C61.549 14.4053 62.0877 14.0587 62.5144 13.376C62.6637 13.1413 62.7864 12.8533 62.8824 12.512C62.8824 11.3173 62.989 10.2933 63.2024 9.44C62.3384 9.61067 61.5864 10.0267 60.9464 10.688C60.3064 11.3493 59.9864 12.1813 59.9864 13.184ZM72.0029 9.248C72.0029 8.53333 72.5575 8.176 73.6669 8.176C73.9442 8.176 74.1149 8.26667 74.1789 8.448C74.2535 8.62933 74.2909 8.90667 74.2909 9.28C74.2909 9.80267 74.1735 10.6133 73.9389 11.712C73.7042 12.8107 73.5922 13.552 73.6029 13.936C73.6029 14.1173 73.6615 14.208 73.7789 14.208C73.9389 14.208 74.1362 14.1067 74.3709 13.904C74.6055 13.7013 74.8402 13.4827 75.0749 13.248C75.3095 13.0027 75.5229 12.7787 75.7149 12.576C75.9175 12.3733 76.0562 12.272 76.1309 12.272C76.2802 12.272 76.3549 12.4533 76.3549 12.816C76.3549 13.5627 75.9869 14.2827 75.2509 14.976C74.0135 15.7013 73.2295 16.064 72.8989 16.064C72.8669 16.064 72.8402 16.0587 72.8189 16.048C72.4135 16.048 72.1255 15.9147 71.9549 15.648C71.7949 15.3813 71.6935 15.0453 71.6509 14.64C71.4375 15.0347 71.1442 15.376 70.7709 15.664C70.3975 15.9413 69.9709 16.08 69.4909 16.08C68.6482 16.08 67.9975 15.92 67.5389 15.6C67.0909 15.28 66.8669 14.8053 66.8669 14.176C66.8669 13.8987 66.9042 13.6427 66.9789 13.408C67.0642 13.1733 67.1975 12.8853 67.3789 12.544L67.8429 8.608C68.1735 8.352 68.6482 8.224 69.2669 8.224C69.7575 8.224 70.0349 8.544 70.0989 9.184C70.1522 9.70667 70.1255 10.176 70.0189 10.592C69.9229 10.9973 69.7895 11.5147 69.6189 12.144C69.4482 12.7627 69.3629 13.312 69.3629 13.792C69.3629 14.176 69.6029 14.368 70.0829 14.368C70.6055 14.368 71.0589 13.9093 71.4429 12.992C71.7415 12.288 71.9442 11.504 72.0509 10.64C72.0402 10.5547 72.0295 10.448 72.0189 10.32C72.0189 10.1813 72.0135 10.048 72.0029 9.92C72.0029 9.792 72.0029 9.664 72.0029 9.536V9.248ZM81.6861 8.72C81.8355 8.25067 82.0755 8.016 82.4061 8.016C82.7048 8.02667 82.9875 8.24 83.2541 8.656C83.5208 9.06133 83.6541 9.376 83.6541 9.6C83.6328 10.0373 83.4995 10.736 83.2541 11.696C83.0088 12.6453 82.6621 13.8827 82.2141 15.408C82.9181 14.864 83.6115 14.1547 84.2941 13.28C84.5288 12.9813 84.7261 12.7413 84.8861 12.56C85.0568 12.368 85.1955 12.272 85.3021 12.272C85.4515 12.272 85.5261 12.4427 85.5261 12.784C85.5261 13.456 85.1475 14.24 84.3901 15.136C83.6435 16.032 82.7261 16.7307 81.6381 17.232C81.5101 17.6587 81.3715 18.064 81.2221 18.448C81.0728 18.832 80.8808 19.168 80.6461 19.456C80.1341 20.0747 79.3555 20.384 78.3101 20.384C77.6061 20.384 77.0035 20.1813 76.5021 19.776C76.0115 19.3707 75.7661 18.864 75.7661 18.256C75.7661 17.9253 75.8728 17.664 76.0861 17.472C76.3101 17.28 76.6141 17.1253 76.9981 17.008C77.3821 16.8907 77.8301 16.7893 78.3421 16.704C78.8648 16.6187 79.4195 16.512 80.0061 16.384C80.0595 16.2027 80.1021 16.0267 80.1341 15.856C80.1768 15.6747 80.2195 15.4933 80.2621 15.312C79.6755 15.856 78.9555 16.128 78.1021 16.128C77.2595 16.128 76.6088 15.8933 76.1501 15.424C75.6915 14.9547 75.4675 14.384 75.4781 13.712C75.4781 11.8987 76.0808 10.4693 77.2861 9.424C78.1181 8.70933 78.9821 8.352 79.8781 8.352C80.1875 8.352 80.5181 8.38933 80.8701 8.464C81.2328 8.53867 81.5048 8.624 81.6861 8.72ZM77.8301 13.184C77.8301 14.0053 78.1341 14.416 78.7421 14.416C79.0835 14.416 79.4301 14.288 79.7821 14.032C80.1341 13.776 80.4168 13.36 80.6301 12.784C80.7901 12.0373 80.9555 11.3493 81.1261 10.72C81.3075 10.0907 81.4301 9.65333 81.4941 9.408C80.5981 9.52533 79.7608 9.92533 78.9821 10.608C78.2141 11.2907 77.8301 12.1493 77.8301 13.184ZM79.5101 17.856C79.1261 17.9307 78.7901 17.9893 78.5021 18.032C78.2141 18.0747 77.9741 18.112 77.7821 18.144C77.6008 18.176 77.4621 18.2133 77.3661 18.256C77.2808 18.2987 77.2381 18.368 77.2381 18.464C77.2381 18.656 77.3555 18.8213 77.5901 18.96C77.8355 19.0987 78.0755 19.1627 78.3101 19.152C78.7155 19.152 79.1155 18.72 79.5101 17.856ZM86.65 16.048C85.5833 16.048 85.05 15.0507 85.05 13.056C85.05 11.968 85.1833 10.9813 85.45 10.096C85.866 8.73067 86.3353 8.048 86.858 8.048C87.1673 8.048 87.4127 8.256 87.594 8.672C87.7433 8.992 87.8127 9.30667 87.802 9.616C87.802 10.0427 87.674 10.7947 87.418 11.872C87.1727 12.8107 87.05 13.392 87.05 13.616C87.05 13.84 87.1033 13.9947 87.21 14.08C87.3273 14.1653 87.4607 14.208 87.61 14.208C87.77 14.208 87.9673 14.1067 88.202 13.904C88.4367 13.7013 88.6713 13.4827 88.906 13.248C89.1407 13.0027 89.354 12.7787 89.546 12.576C89.7487 12.3733 89.8873 12.272 89.962 12.272C90.1113 12.272 90.186 12.4533 90.186 12.816C90.186 13.5627 89.8073 14.2933 89.05 15.008C88.3033 15.712 87.5033 16.0587 86.65 16.048ZM87.306 6.752C87.018 6.32533 86.874 5.86667 86.874 5.376C86.874 4.88533 86.9487 4.48 87.098 4.16C87.258 3.82933 87.4073 3.58933 87.546 3.44C87.6847 3.28 87.8447 3.2 88.026 3.2C88.3247 3.2 88.5967 3.424 88.842 3.872C89.0873 4.30933 89.21 4.67733 89.21 4.976C89.21 5.53067 89.0127 5.968 88.618 6.288C88.234 6.59733 87.7967 6.752 87.306 6.752ZM91.5143 8.016C91.8983 8.016 92.2609 8.384 92.6023 9.12C93.1036 8.59733 93.7223 8.336 94.4583 8.336C95.2049 8.336 95.7649 8.50133 96.1383 8.832C96.5116 9.152 96.6983 9.61067 96.6983 10.208C96.6983 10.7947 96.6183 11.392 96.4583 12C96.3089 12.608 96.1969 13.0453 96.1223 13.312C96.0583 13.568 96.0263 13.7813 96.0263 13.952C96.0263 14.1227 96.0849 14.208 96.2023 14.208C96.3623 14.208 96.5596 14.1067 96.7943 13.904C97.0289 13.7013 97.2636 13.4827 97.4983 13.248C97.7329 13.0027 97.9463 12.7787 98.1383 12.576C98.3409 12.3733 98.4796 12.272 98.5543 12.272C98.7036 12.272 98.7783 12.4533 98.7783 12.816C98.7783 13.5627 98.4103 14.2827 97.6743 14.976C96.4369 15.7013 95.6476 16.064 95.3063 16.064C95.2743 16.064 95.2529 16.0587 95.2423 16.048C94.3889 16.048 93.9623 15.3653 93.9623 14C93.9623 13.4133 94.0156 12.8747 94.1223 12.384C94.2396 11.8933 94.3249 11.536 94.3783 11.312C94.4316 11.088 94.4583 10.8587 94.4583 10.624C94.4583 10.24 94.2343 10.048 93.7863 10.048C93.3489 10.048 92.9276 10.3787 92.5223 11.04C92.1276 11.6907 91.8609 12.368 91.7223 13.072V13.184C91.7223 13.5467 91.7756 13.92 91.8823 14.304C91.9996 14.688 92.0583 14.9547 92.0583 15.104C92.0583 15.4667 91.6049 15.824 90.6983 16.176C90.5596 16.2293 90.4369 16.256 90.3303 16.256C90.0636 16.256 89.8769 16.1173 89.7703 15.84C89.6743 15.5627 89.6263 15.1307 89.6263 14.544C89.6263 13.0293 89.6849 11.936 89.8023 11.264C89.9623 10.2613 90.3249 9.328 90.8903 8.464C91.0823 8.16533 91.2903 8.016 91.5143 8.016ZM104.108 8.72C104.257 8.25067 104.497 8.016 104.828 8.016C105.127 8.02667 105.409 8.24 105.676 8.656C105.943 9.06133 106.076 9.376 106.076 9.6C106.055 10.0373 105.921 10.736 105.676 11.696C105.431 12.6453 105.084 13.8827 104.636 15.408C105.34 14.864 106.033 14.1547 106.716 13.28C106.951 12.9813 107.148 12.7413 107.308 12.56C107.479 12.368 107.617 12.272 107.724 12.272C107.873 12.272 107.948 12.4427 107.948 12.784C107.948 13.456 107.569 14.24 106.812 15.136C106.065 16.032 105.148 16.7307 104.06 17.232C103.932 17.6587 103.793 18.064 103.644 18.448C103.495 18.832 103.303 19.168 103.068 19.456C102.556 20.0747 101.777 20.384 100.732 20.384C100.028 20.384 99.4253 20.1813 98.924 19.776C98.4333 19.3707 98.188 18.864 98.188 18.256C98.188 17.9253 98.2947 17.664 98.508 17.472C98.732 17.28 99.036 17.1253 99.42 17.008C99.804 16.8907 100.252 16.7893 100.764 16.704C101.287 16.6187 101.841 16.512 102.428 16.384C102.481 16.2027 102.524 16.0267 102.556 15.856C102.599 15.6747 102.641 15.4933 102.684 15.312C102.097 15.856 101.377 16.128 100.524 16.128C99.6813 16.128 99.0307 15.8933 98.572 15.424C98.1133 14.9547 97.8893 14.384 97.9 13.712C97.9 11.8987 98.5027 10.4693 99.708 9.424C100.54 8.70933 101.404 8.352 102.3 8.352C102.609 8.352 102.94 8.38933 103.292 8.464C103.655 8.53867 103.927 8.624 104.108 8.72ZM100.252 13.184C100.252 14.0053 100.556 14.416 101.164 14.416C101.505 14.416 101.852 14.288 102.204 14.032C102.556 13.776 102.839 13.36 103.052 12.784C103.212 12.0373 103.377 11.3493 103.548 10.72C103.729 10.0907 103.852 9.65333 103.916 9.408C103.02 9.52533 102.183 9.92533 101.404 10.608C100.636 11.2907 100.252 12.1493 100.252 13.184ZM101.932 17.856C101.548 17.9307 101.212 17.9893 100.924 18.032C100.636 18.0747 100.396 18.112 100.204 18.144C100.023 18.176 99.884 18.2133 99.788 18.256C99.7027 18.2987 99.66 18.368 99.66 18.464C99.66 18.656 99.7773 18.8213 100.012 18.96C100.257 19.0987 100.497 19.1627 100.732 19.152C101.137 19.152 101.537 18.72 101.932 17.856Z" fill="black"/>
</g>
<defs>
<clipPath id="clip0_35_188">
<rect width="110" height="32" fill="white"/>
</clipPath>
</defs>
</svg>
