<svg width="32" height="32" viewBox="0 0 32 32" fill="none" xmlns="http://www.w3.org/2000/svg">
<g clip-path="url(#clip0_35_172)">
<circle cx="14.5" cy="14.5" r="11.5" stroke="black" stroke-width="2"/>
<path d="M5.50006 21.9999C2.00003 22.5 1 28 5.50003 28.9999C10.0001 29.9999 27.5 26.0001 29.5 30.0001" stroke="black" stroke-width="2"/>
<path d="M5.32014 7.6161C14.7323 7.05021 22.966 15.1571 23.1233 22.4521" stroke="black" stroke-width="2"/>
<path d="M3.78109 9.6509C12.0603 10.0925 20.1458 17.7869 21 24" stroke="black" stroke-width="2"/>
<path d="M3.00001 13.5619C10.4929 13.5651 17.4548 20.291 17.9258 26" stroke="black" stroke-width="2"/>
<path d="M7.99996 24.5001C8.25187 21.6769 8.99997 18.0001 11 16" stroke="black" stroke-width="2"/>
<path d="M11.4283 26.0001C11.451 23.4748 12.8202 20.45 14 18.5" stroke="black" stroke-width="2"/>
<path d="M15 26C15.0305 24.2002 15.1491 22.8963 16 21.5" stroke="black" stroke-width="2"/>
<path d="M6 7C7.36364 6.6345 10.7634 5.98054 13.6948 6.00044C16.7679 6.02131 19.5 7 21 8" stroke="black" stroke-width="2"/>
<path d="M15.5 10.5001C18 7.58208 24.0679 7.58215 24.0679 7.58215" stroke="black" stroke-width="2"/>
<path d="M18.5204 12.6067C21.2192 11.0625 25.5 11 25.5 11" stroke="black" stroke-width="2"/>
<path d="M21 16C22.9968 13.8722 26.6549 14.644 26.6549 14.644" stroke="black" stroke-width="2"/>
<path d="M3.5 18.5C4 18.5001 7 15.9999 10.5 16.5" stroke="black" stroke-width="2"/>
<path d="M21.5 17C21.5 17 24 17 24.7497 18L25.5 18.5" stroke="black" stroke-width="2"/>
</g>
<defs>
<clipPath id="clip0_35_172">
<rect width="32" height="32" fill="white"/>
</clipPath>
</defs>
</svg>
