<svg width="165" height="32" viewBox="0 0 165 32" fill="none" xmlns="http://www.w3.org/2000/svg">
<g clip-path="url(#clip0_35_226)">
<circle cx="14.5" cy="14.5" r="11.5" stroke="black" stroke-width="2"/>
<path d="M3.99558 19.9987C1.00196 20.0004 -7.79206 34.7851 29.9352 29.9836C67.6624 25.1822 155.5 26 159 30.9999" stroke="black" stroke-width="2"/>
<path d="M5.32014 7.6161C14.7323 7.05021 22.966 15.1571 23.1233 22.4521" stroke="black" stroke-width="2"/>
<path d="M3.78109 9.6509C12.0603 10.0925 20.1458 17.7869 21 24" stroke="black" stroke-width="2"/>
<path d="M3.00001 13.5619C10.4929 13.5651 17.4548 20.291 17.9258 26" stroke="black" stroke-width="2"/>
<path d="M7.99996 24.5001C8.25187 21.6769 8.99997 18.0001 11 16" stroke="black" stroke-width="2"/>
<path d="M11.4283 26.0002C11.451 23.4748 12.2485 20.9501 13.4283 19.0001" stroke="black" stroke-width="2"/>
<path d="M15 26C15.0304 24.2002 15.6126 22.3964 16.4636 21" stroke="black" stroke-width="2"/>
<path d="M6 7C7.36364 6.6345 10.7634 5.98054 13.6948 6.00044C16.7679 6.02131 19.5 7 21 8" stroke="black" stroke-width="2"/>
<path d="M15.5 10.5001C18 7.58208 24.0679 7.58215 24.0679 7.58215" stroke="black" stroke-width="2"/>
<path d="M19 12.5C21.5 11 25.5 10.9999 25.5 10.9999" stroke="black" stroke-width="2"/>
<path d="M21 16C22.9968 13.8722 26.6549 14.644 26.6549 14.644" stroke="black" stroke-width="2"/>
<path d="M3.5 18.5C4 18.5001 7 15.9999 10.5 16.5" stroke="black" stroke-width="2"/>
<path d="M22 17C22 17 24 17 24.7497 18L25.5 18.5" stroke="black" stroke-width="2"/>
<path d="M34.248 13.864C35.176 13.864 35.64 14.0987 35.64 14.568C35.64 15.112 35.1067 15.384 34.04 15.384C33.8053 15.384 33.5493 15.3413 33.272 15.256C32.9627 15.4693 32.7227 15.736 32.552 16.056C32.392 16.376 32.312 16.84 32.312 17.448C32.312 18.0453 32.5467 18.488 33.016 18.776C33.496 19.064 34.056 19.208 34.696 19.208C35.3467 19.208 35.8693 19.1067 36.264 18.904C36.6693 18.6907 37.0213 18.4613 37.32 18.216C37.6187 17.9707 37.8587 17.7467 38.04 17.544C38.232 17.3307 38.3707 17.224 38.456 17.224C38.5413 17.224 38.6107 17.2827 38.664 17.4C38.7173 17.5067 38.744 17.6507 38.744 17.832C38.744 18.6853 38.2693 19.4373 37.32 20.088C36.3813 20.728 35.256 21.048 33.944 21.048C31.896 21.048 30.568 20.456 29.96 19.272C29.7467 18.856 29.64 18.3547 29.64 17.768C29.64 16.2427 30.4027 15.176 31.928 14.568C31.1493 14.024 30.76 13.2027 30.76 12.104C30.76 11.5813 30.904 11.096 31.192 10.648C30.9253 10.3493 30.7067 10.0347 30.536 9.704C30.376 9.37333 30.296 9.12267 30.296 8.952C30.296 8.65333 30.4027 8.504 30.616 8.504C30.7653 8.504 30.9467 8.62133 31.16 8.856C31.384 9.08 31.5653 9.26133 31.704 9.4C31.8427 9.53867 31.9867 9.65067 32.136 9.736C33.0427 9.18133 34.1093 8.904 35.336 8.904C36.5627 8.904 37.3787 9.24533 37.784 9.928C37.9333 10.184 38.008 10.4987 38.008 10.872C38.008 11.4373 37.7627 11.912 37.272 12.296C36.7813 12.68 36.136 12.872 35.336 12.872C34.536 12.872 33.7893 12.616 33.096 12.104C33.0853 12.1467 33.08 12.1893 33.08 12.232V12.584C33.08 12.776 33.1387 13.0053 33.256 13.272C33.384 13.528 33.5387 13.7413 33.72 13.912C33.88 13.88 34.056 13.864 34.248 13.864ZM36.232 11.112C36.232 10.696 35.8907 10.488 35.208 10.488C34.5253 10.488 33.976 10.696 33.56 11.112C34.136 11.464 34.7227 11.64 35.32 11.64C35.928 11.64 36.232 11.464 36.232 11.112ZM40.0768 13.016C40.4608 13.016 40.8234 13.384 41.1648 14.12C41.6661 13.5973 42.2848 13.336 43.0208 13.336C43.7674 13.336 44.3274 13.5013 44.7008 13.832C45.0741 14.152 45.2608 14.6107 45.2608 15.208C45.2608 15.7947 45.1808 16.392 45.0208 17C44.8714 17.608 44.7594 18.0453 44.6848 18.312C44.6208 18.568 44.5888 18.7813 44.5888 18.952C44.5888 19.1227 44.6474 19.208 44.7648 19.208C44.9248 19.208 45.1221 19.1067 45.3568 18.904C45.5914 18.7013 45.8261 18.4827 46.0608 18.248C46.2954 18.0027 46.5088 17.7787 46.7008 17.576C46.9034 17.3733 47.0421 17.272 47.1168 17.272C47.2661 17.272 47.3408 17.4533 47.3408 17.816C47.3408 18.5627 46.9728 19.2827 46.2368 19.976C44.9994 20.7013 44.2101 21.064 43.8688 21.064C43.8368 21.064 43.8154 21.0587 43.8048 21.048C42.9514 21.048 42.5248 20.3653 42.5248 19C42.5248 18.4133 42.5781 17.8747 42.6848 17.384C42.8021 16.8933 42.8874 16.536 42.9408 16.312C42.9941 16.088 43.0208 15.8587 43.0208 15.624C43.0208 15.24 42.7968 15.048 42.3488 15.048C41.9114 15.048 41.4901 15.3787 41.0848 16.04C40.6901 16.6907 40.4234 17.368 40.2848 18.072V18.184C40.2848 18.5467 40.3381 18.92 40.4448 19.304C40.5621 19.688 40.6208 19.9547 40.6208 20.104C40.6208 20.4667 40.1674 20.824 39.2608 21.176C39.1221 21.2293 38.9994 21.256 38.8928 21.256C38.6261 21.256 38.4394 21.1173 38.3328 20.84C38.2368 20.5627 38.1888 20.1307 38.1888 19.544C38.1888 18.0293 38.2474 16.936 38.3648 16.264C38.5248 15.2613 38.8874 14.328 39.4528 13.464C39.6448 13.1653 39.8528 13.016 40.0768 13.016ZM52.6705 13.72C52.8198 13.2507 53.0598 13.016 53.3905 13.016C53.6892 13.0267 53.9718 13.24 54.2385 13.656C54.5052 14.0613 54.6385 14.376 54.6385 14.6C54.6172 15.0373 54.4838 15.736 54.2385 16.696C53.9932 17.6453 53.6465 18.8827 53.1985 20.408C53.9025 19.864 54.5958 19.1547 55.2785 18.28C55.5132 17.9813 55.7105 17.7413 55.8705 17.56C56.0412 17.368 56.1798 17.272 56.2865 17.272C56.4358 17.272 56.5105 17.4427 56.5105 17.784C56.5105 18.456 56.1318 19.24 55.3745 20.136C54.6278 21.032 53.7105 21.7307 52.6225 22.232C52.4945 22.6587 52.3558 23.064 52.2065 23.448C52.0572 23.832 51.8652 24.168 51.6305 24.456C51.1185 25.0747 50.3398 25.384 49.2945 25.384C48.5905 25.384 47.9878 25.1813 47.4865 24.776C46.9958 24.3707 46.7505 23.864 46.7505 23.256C46.7505 22.9253 46.8572 22.664 47.0705 22.472C47.2945 22.28 47.5985 22.1253 47.9825 22.008C48.3665 21.8907 48.8145 21.7893 49.3265 21.704C49.8492 21.6187 50.4038 21.512 50.9905 21.384C51.0438 21.2027 51.0865 21.0267 51.1185 20.856C51.1612 20.6747 51.2038 20.4933 51.2465 20.312C50.6598 20.856 49.9398 21.128 49.0865 21.128C48.2438 21.128 47.5932 20.8933 47.1345 20.424C46.6758 19.9547 46.4518 19.384 46.4625 18.712C46.4625 16.8987 47.0652 15.4693 48.2705 14.424C49.1025 13.7093 49.9665 13.352 50.8625 13.352C51.1718 13.352 51.5025 13.3893 51.8545 13.464C52.2172 13.5387 52.4892 13.624 52.6705 13.72ZM48.8145 18.184C48.8145 19.0053 49.1185 19.416 49.7265 19.416C50.0678 19.416 50.4145 19.288 50.7665 19.032C51.1185 18.776 51.4012 18.36 51.6145 17.784C51.7745 17.0373 51.9398 16.3493 52.1105 15.72C52.2918 15.0907 52.4145 14.6533 52.4785 14.408C51.5825 14.5253 50.7452 14.9253 49.9665 15.608C49.1985 16.2907 48.8145 17.1493 48.8145 18.184ZM50.4945 22.856C50.1105 22.9307 49.7745 22.9893 49.4865 23.032C49.1985 23.0747 48.9585 23.112 48.7665 23.144C48.5852 23.176 48.4465 23.2133 48.3505 23.256C48.2652 23.2987 48.2225 23.368 48.2225 23.464C48.2225 23.656 48.3398 23.8213 48.5745 23.96C48.8198 24.0987 49.0598 24.1627 49.2945 24.152C49.6998 24.152 50.0998 23.72 50.4945 22.856ZM65.5384 17.224C65.7304 17.224 65.8264 17.4693 65.8264 17.96C65.8264 18.2267 65.7144 18.552 65.4904 18.936C65.2664 19.3093 64.973 19.656 64.6104 19.976C64.2584 20.2853 63.8637 20.5413 63.4264 20.744C62.989 20.9467 62.5624 21.048 62.1464 21.048C61.581 21.048 61.2024 20.552 61.0104 19.56C60.733 20.0187 60.3704 20.3973 59.9224 20.696C59.4744 20.984 58.8717 21.128 58.1144 21.128C57.3677 21.128 56.765 20.8933 56.3064 20.424C55.8477 19.9547 55.6237 19.384 55.6344 18.712C55.6344 16.8987 56.237 15.4693 57.4424 14.424C57.9544 13.9867 58.429 13.6987 58.8664 13.56C59.3144 13.4213 59.7837 13.352 60.2744 13.352C60.765 13.352 61.165 13.4373 61.4744 13.608C61.6237 13.2987 61.7944 13.144 61.9864 13.144C62.3597 13.144 62.7117 13.3093 63.0424 13.64C63.3837 13.96 63.5544 14.264 63.5544 14.552C63.405 14.904 63.1864 15.3253 62.8984 15.816C62.813 16.3067 62.7704 16.9947 62.7704 17.88C62.7704 18.7653 62.8824 19.208 63.1064 19.208C63.3837 19.208 64.0557 18.6533 65.1224 17.544C65.3144 17.3307 65.453 17.224 65.5384 17.224ZM57.9864 18.184C57.9864 19.0053 58.2904 19.416 58.8984 19.416C59.549 19.4053 60.0877 19.0587 60.5144 18.376C60.6637 18.1413 60.7864 17.8533 60.8824 17.512C60.8824 16.3173 60.989 15.2933 61.2024 14.44C60.3384 14.6107 59.5864 15.0267 58.9464 15.688C58.3064 16.3493 57.9864 17.1813 57.9864 18.184ZM70.0029 14.248C70.0029 13.5333 70.5575 13.176 71.6669 13.176C71.9442 13.176 72.1149 13.2667 72.1789 13.448C72.2535 13.6293 72.2909 13.9067 72.2909 14.28C72.2909 14.8027 72.1735 15.6133 71.9389 16.712C71.7042 17.8107 71.5922 18.552 71.6029 18.936C71.6029 19.1173 71.6615 19.208 71.7789 19.208C71.9389 19.208 72.1362 19.1067 72.3709 18.904C72.6055 18.7013 72.8402 18.4827 73.0749 18.248C73.3095 18.0027 73.5229 17.7787 73.7149 17.576C73.9175 17.3733 74.0562 17.272 74.1309 17.272C74.2802 17.272 74.3549 17.4533 74.3549 17.816C74.3549 18.5627 73.9869 19.2827 73.2509 19.976C72.0135 20.7013 71.2295 21.064 70.8989 21.064C70.8669 21.064 70.8402 21.0587 70.8189 21.048C70.4135 21.048 70.1255 20.9147 69.9549 20.648C69.7949 20.3813 69.6935 20.0453 69.6509 19.64C69.4375 20.0347 69.1442 20.376 68.7709 20.664C68.3975 20.9413 67.9709 21.08 67.4909 21.08C66.6482 21.08 65.9975 20.92 65.5389 20.6C65.0909 20.28 64.8669 19.8053 64.8669 19.176C64.8669 18.8987 64.9042 18.6427 64.9789 18.408C65.0642 18.1733 65.1975 17.8853 65.3789 17.544L65.8429 13.608C66.1735 13.352 66.6482 13.224 67.2669 13.224C67.7575 13.224 68.0349 13.544 68.0989 14.184C68.1522 14.7067 68.1255 15.176 68.0189 15.592C67.9229 15.9973 67.7895 16.5147 67.6189 17.144C67.4482 17.7627 67.3629 18.312 67.3629 18.792C67.3629 19.176 67.6029 19.368 68.0829 19.368C68.6055 19.368 69.0589 18.9093 69.4429 17.992C69.7415 17.288 69.9442 16.504 70.0509 15.64C70.0402 15.5547 70.0295 15.448 70.0189 15.32C70.0189 15.1813 70.0135 15.048 70.0029 14.92C70.0029 14.792 70.0029 14.664 70.0029 14.536V14.248ZM79.6861 13.72C79.8355 13.2507 80.0755 13.016 80.4061 13.016C80.7048 13.0267 80.9875 13.24 81.2541 13.656C81.5208 14.0613 81.6541 14.376 81.6541 14.6C81.6328 15.0373 81.4995 15.736 81.2541 16.696C81.0088 17.6453 80.6621 18.8827 80.2141 20.408C80.9181 19.864 81.6115 19.1547 82.2941 18.28C82.5288 17.9813 82.7261 17.7413 82.8861 17.56C83.0568 17.368 83.1955 17.272 83.3021 17.272C83.4515 17.272 83.5261 17.4427 83.5261 17.784C83.5261 18.456 83.1475 19.24 82.3901 20.136C81.6435 21.032 80.7261 21.7307 79.6381 22.232C79.5101 22.6587 79.3715 23.064 79.2221 23.448C79.0728 23.832 78.8808 24.168 78.6461 24.456C78.1341 25.0747 77.3555 25.384 76.3101 25.384C75.6061 25.384 75.0035 25.1813 74.5021 24.776C74.0115 24.3707 73.7661 23.864 73.7661 23.256C73.7661 22.9253 73.8728 22.664 74.0861 22.472C74.3101 22.28 74.6141 22.1253 74.9981 22.008C75.3821 21.8907 75.8301 21.7893 76.3421 21.704C76.8648 21.6187 77.4195 21.512 78.0061 21.384C78.0595 21.2027 78.1021 21.0267 78.1341 20.856C78.1768 20.6747 78.2195 20.4933 78.2621 20.312C77.6755 20.856 76.9555 21.128 76.1021 21.128C75.2595 21.128 74.6088 20.8933 74.1501 20.424C73.6915 19.9547 73.4675 19.384 73.4781 18.712C73.4781 16.8987 74.0808 15.4693 75.2861 14.424C76.1181 13.7093 76.9821 13.352 77.8781 13.352C78.1875 13.352 78.5181 13.3893 78.8701 13.464C79.2328 13.5387 79.5048 13.624 79.6861 13.72ZM75.8301 18.184C75.8301 19.0053 76.1341 19.416 76.7421 19.416C77.0835 19.416 77.4301 19.288 77.7821 19.032C78.1341 18.776 78.4168 18.36 78.6301 17.784C78.7901 17.0373 78.9555 16.3493 79.1261 15.72C79.3075 15.0907 79.4301 14.6533 79.4941 14.408C78.5981 14.5253 77.7608 14.9253 76.9821 15.608C76.2141 16.2907 75.8301 17.1493 75.8301 18.184ZM77.5101 22.856C77.1261 22.9307 76.7901 22.9893 76.5021 23.032C76.2141 23.0747 75.9741 23.112 75.7821 23.144C75.6008 23.176 75.4621 23.2133 75.3661 23.256C75.2808 23.2987 75.2381 23.368 75.2381 23.464C75.2381 23.656 75.3555 23.8213 75.5901 23.96C75.8355 24.0987 76.0755 24.1627 76.3101 24.152C76.7155 24.152 77.1155 23.72 77.5101 22.856ZM84.65 21.048C83.5833 21.048 83.05 20.0507 83.05 18.056C83.05 16.968 83.1833 15.9813 83.45 15.096C83.866 13.7307 84.3353 13.048 84.858 13.048C85.1673 13.048 85.4127 13.256 85.594 13.672C85.7433 13.992 85.8127 14.3067 85.802 14.616C85.802 15.0427 85.674 15.7947 85.418 16.872C85.1727 17.8107 85.05 18.392 85.05 18.616C85.05 18.84 85.1033 18.9947 85.21 19.08C85.3273 19.1653 85.4607 19.208 85.61 19.208C85.77 19.208 85.9673 19.1067 86.202 18.904C86.4367 18.7013 86.6713 18.4827 86.906 18.248C87.1407 18.0027 87.354 17.7787 87.546 17.576C87.7487 17.3733 87.8873 17.272 87.962 17.272C88.1113 17.272 88.186 17.4533 88.186 17.816C88.186 18.5627 87.8073 19.2933 87.05 20.008C86.3033 20.712 85.5033 21.0587 84.65 21.048ZM85.306 11.752C85.018 11.3253 84.874 10.8667 84.874 10.376C84.874 9.88533 84.9487 9.48 85.098 9.16C85.258 8.82933 85.4073 8.58933 85.546 8.44C85.6847 8.28 85.8447 8.2 86.026 8.2C86.3247 8.2 86.5967 8.424 86.842 8.872C87.0873 9.30933 87.21 9.67733 87.21 9.976C87.21 10.5307 87.0127 10.968 86.618 11.288C86.234 11.5973 85.7967 11.752 85.306 11.752ZM89.5143 13.016C89.8983 13.016 90.2609 13.384 90.6023 14.12C91.1036 13.5973 91.7223 13.336 92.4583 13.336C93.2049 13.336 93.7649 13.5013 94.1383 13.832C94.5116 14.152 94.6983 14.6107 94.6983 15.208C94.6983 15.7947 94.6183 16.392 94.4583 17C94.3089 17.608 94.1969 18.0453 94.1223 18.312C94.0583 18.568 94.0263 18.7813 94.0263 18.952C94.0263 19.1227 94.0849 19.208 94.2023 19.208C94.3623 19.208 94.5596 19.1067 94.7943 18.904C95.0289 18.7013 95.2636 18.4827 95.4983 18.248C95.7329 18.0027 95.9463 17.7787 96.1383 17.576C96.3409 17.3733 96.4796 17.272 96.5543 17.272C96.7036 17.272 96.7783 17.4533 96.7783 17.816C96.7783 18.5627 96.4103 19.2827 95.6743 19.976C94.4369 20.7013 93.6476 21.064 93.3063 21.064C93.2743 21.064 93.2529 21.0587 93.2423 21.048C92.3889 21.048 91.9623 20.3653 91.9623 19C91.9623 18.4133 92.0156 17.8747 92.1223 17.384C92.2396 16.8933 92.3249 16.536 92.3783 16.312C92.4316 16.088 92.4583 15.8587 92.4583 15.624C92.4583 15.24 92.2343 15.048 91.7863 15.048C91.3489 15.048 90.9276 15.3787 90.5223 16.04C90.1276 16.6907 89.8609 17.368 89.7223 18.072V18.184C89.7223 18.5467 89.7756 18.92 89.8823 19.304C89.9996 19.688 90.0583 19.9547 90.0583 20.104C90.0583 20.4667 89.6049 20.824 88.6983 21.176C88.5596 21.2293 88.4369 21.256 88.3303 21.256C88.0636 21.256 87.8769 21.1173 87.7703 20.84C87.6743 20.5627 87.6263 20.1307 87.6263 19.544C87.6263 18.0293 87.6849 16.936 87.8023 16.264C87.9623 15.2613 88.3249 14.328 88.8903 13.464C89.0823 13.1653 89.2903 13.016 89.5143 13.016ZM102.108 13.72C102.257 13.2507 102.497 13.016 102.828 13.016C103.127 13.0267 103.409 13.24 103.676 13.656C103.943 14.0613 104.076 14.376 104.076 14.6C104.055 15.0373 103.921 15.736 103.676 16.696C103.431 17.6453 103.084 18.8827 102.636 20.408C103.34 19.864 104.033 19.1547 104.716 18.28C104.951 17.9813 105.148 17.7413 105.308 17.56C105.479 17.368 105.617 17.272 105.724 17.272C105.873 17.272 105.948 17.4427 105.948 17.784C105.948 18.456 105.569 19.24 104.812 20.136C104.065 21.032 103.148 21.7307 102.06 22.232C101.932 22.6587 101.793 23.064 101.644 23.448C101.495 23.832 101.303 24.168 101.068 24.456C100.556 25.0747 99.7773 25.384 98.732 25.384C98.028 25.384 97.4253 25.1813 96.924 24.776C96.4333 24.3707 96.188 23.864 96.188 23.256C96.188 22.9253 96.2947 22.664 96.508 22.472C96.732 22.28 97.036 22.1253 97.42 22.008C97.804 21.8907 98.252 21.7893 98.764 21.704C99.2867 21.6187 99.8413 21.512 100.428 21.384C100.481 21.2027 100.524 21.0267 100.556 20.856C100.599 20.6747 100.641 20.4933 100.684 20.312C100.097 20.856 99.3773 21.128 98.524 21.128C97.6813 21.128 97.0307 20.8933 96.572 20.424C96.1133 19.9547 95.8893 19.384 95.9 18.712C95.9 16.8987 96.5027 15.4693 97.708 14.424C98.54 13.7093 99.404 13.352 100.3 13.352C100.609 13.352 100.94 13.3893 101.292 13.464C101.655 13.5387 101.927 13.624 102.108 13.72ZM98.252 18.184C98.252 19.0053 98.556 19.416 99.164 19.416C99.5053 19.416 99.852 19.288 100.204 19.032C100.556 18.776 100.839 18.36 101.052 17.784C101.212 17.0373 101.377 16.3493 101.548 15.72C101.729 15.0907 101.852 14.6533 101.916 14.408C101.02 14.5253 100.183 14.9253 99.404 15.608C98.636 16.2907 98.252 17.1493 98.252 18.184ZM99.932 22.856C99.548 22.9307 99.212 22.9893 98.924 23.032C98.636 23.0747 98.396 23.112 98.204 23.144C98.0227 23.176 97.884 23.2133 97.788 23.256C97.7027 23.2987 97.66 23.368 97.66 23.464C97.66 23.656 97.7773 23.8213 98.012 23.96C98.2573 24.0987 98.4973 24.1627 98.732 24.152C99.1373 24.152 99.5373 23.72 99.932 22.856ZM113.782 17.624C113.782 18.552 114.177 19.016 114.966 19.016C115.83 19.016 116.411 18.7173 116.71 18.12C116.817 17.9067 116.87 17.6347 116.87 17.304C116.87 16.9627 116.79 16.648 116.63 16.36C116.363 15.9013 115.905 15.3947 115.254 14.84C114.177 13.9227 113.638 12.9733 113.638 11.992C113.638 11 113.947 10.2373 114.566 9.704C115.185 9.17067 115.894 8.904 116.694 8.904C117.494 8.904 118.129 9.10667 118.598 9.512C119.067 9.91733 119.302 10.5253 119.302 11.336C119.302 11.8693 119.121 12.3333 118.758 12.728C118.406 13.1227 117.937 13.368 117.35 13.464C117.617 13.688 117.883 13.9173 118.15 14.152C118.406 14.3867 118.641 14.6427 118.854 14.92C119.323 15.5493 119.558 16.3013 119.558 17.176C119.558 17.784 119.414 18.3333 119.126 18.824C118.849 19.3147 118.481 19.7307 118.022 20.072C117.574 20.4027 117.067 20.6587 116.502 20.84C115.937 21.0213 115.409 21.112 114.918 21.112C113.873 21.112 113.062 20.872 112.486 20.392C111.814 19.848 111.478 19.064 111.478 18.04C111.478 17.368 111.697 16.7173 112.134 16.088C112.571 15.4587 113.035 15.144 113.526 15.144C113.91 15.144 114.102 15.2613 114.102 15.496C114.102 15.8373 114.049 16.1787 113.942 16.52C113.835 16.8507 113.782 17.2187 113.782 17.624ZM116.886 13.08C117.494 12.472 117.798 11.8373 117.798 11.176C117.798 10.9733 117.691 10.8027 117.478 10.664C117.243 10.536 116.998 10.472 116.742 10.472C116.166 10.472 115.75 10.6587 115.494 11.032C115.622 11.4907 115.809 11.88 116.054 12.2C116.31 12.52 116.587 12.8133 116.886 13.08ZM123.211 13.96C123.211 14.6747 123.083 15.4853 122.827 16.392C122.848 16.7333 122.859 17.064 122.859 17.384C122.88 18.0667 122.966 18.536 123.115 18.792C123.222 18.9307 123.36 19 123.531 19C123.862 19 124.272 18.7653 124.763 18.296C124.39 17.4107 124.203 16.6107 124.203 15.896C124.203 14.4347 124.891 13.704 126.267 13.704C126.736 13.704 127.126 13.8427 127.435 14.12C127.755 14.3867 127.915 14.7227 127.915 15.128C127.915 15.9813 127.44 17.0053 126.491 18.2C126.886 18.6693 127.206 18.9413 127.451 19.016C127.803 19.016 128.331 18.3653 129.035 17.064C128.907 16.584 128.843 16.136 128.843 15.72C128.843 14.9627 128.96 14.408 129.195 14.056C129.483 13.608 129.958 13.384 130.619 13.384C131.291 13.384 131.67 13.656 131.755 14.2C131.776 14.36 131.787 14.5307 131.787 14.712C131.787 15.3947 131.408 16.3387 130.651 17.544C130.918 17.928 131.168 18.1573 131.403 18.232C131.894 18.232 132.31 18.0667 132.651 17.736C132.779 17.6187 132.886 17.512 132.971 17.416C133.067 17.3093 133.163 17.256 133.259 17.256C133.408 17.256 133.483 17.432 133.483 17.784C133.483 18.4347 133.291 18.9147 132.907 19.224C132.523 19.5333 132.022 19.688 131.403 19.688C130.784 19.688 130.246 19.3893 129.787 18.792C129.232 19.5173 128.774 20.024 128.411 20.312C127.75 20.856 127.232 21.128 126.859 21.128C126.678 21.128 126.443 20.9787 126.155 20.68C125.878 20.3707 125.6 19.9707 125.323 19.48C124.811 19.96 124.304 20.3547 123.803 20.664C123.302 20.9733 122.88 21.128 122.539 21.128C121.92 21.128 121.398 19.784 120.971 17.096C120.822 16.1787 120.747 15.5493 120.747 15.208C120.768 14.504 120.864 14.0133 121.035 13.736C121.27 13.3947 121.728 13.224 122.411 13.224C122.667 13.224 122.864 13.304 123.003 13.464C123.142 13.6133 123.211 13.7787 123.211 13.96ZM125.947 16.84C126.299 16.296 126.475 15.864 126.475 15.544C126.475 15.2133 126.363 15.048 126.139 15.048C125.99 15.048 125.894 15.1333 125.851 15.304C125.819 15.464 125.803 15.6773 125.803 15.944C125.803 16.2107 125.851 16.5093 125.947 16.84ZM142.585 17.224C142.777 17.224 142.873 17.4693 142.873 17.96C142.873 18.2267 142.761 18.552 142.537 18.936C142.313 19.3093 142.02 19.656 141.657 19.976C141.305 20.2853 140.911 20.5413 140.473 20.744C140.036 20.9467 139.609 21.048 139.193 21.048C138.628 21.048 138.249 20.552 138.057 19.56C137.78 20.0187 137.417 20.3973 136.969 20.696C136.521 20.984 135.919 21.128 135.161 21.128C134.415 21.128 133.812 20.8933 133.353 20.424C132.895 19.9547 132.671 19.384 132.681 18.712C132.681 16.8987 133.284 15.4693 134.489 14.424C135.001 13.9867 135.476 13.6987 135.913 13.56C136.361 13.4213 136.831 13.352 137.321 13.352C137.812 13.352 138.212 13.4373 138.521 13.608C138.671 13.2987 138.841 13.144 139.033 13.144C139.407 13.144 139.759 13.3093 140.089 13.64C140.431 13.96 140.601 14.264 140.601 14.552C140.452 14.904 140.233 15.3253 139.945 15.816C139.86 16.3067 139.817 16.9947 139.817 17.88C139.817 18.7653 139.929 19.208 140.153 19.208C140.431 19.208 141.103 18.6533 142.169 17.544C142.361 17.3307 142.5 17.224 142.585 17.224ZM135.033 18.184C135.033 19.0053 135.337 19.416 135.945 19.416C136.596 19.4053 137.135 19.0587 137.561 18.376C137.711 18.1413 137.833 17.8533 137.929 17.512C137.929 16.3173 138.036 15.2933 138.249 14.44C137.385 14.6107 136.633 15.0267 135.993 15.688C135.353 16.3493 135.033 17.1813 135.033 18.184ZM142.778 20.136C142.66 19.848 142.575 19.5173 142.522 19.144C142.468 18.76 142.442 18.2267 142.442 17.544C142.442 16.8613 142.57 15.9387 142.826 14.776H142.106C141.978 14.776 141.914 14.7227 141.914 14.616C141.914 14.36 141.935 14.152 141.978 13.992C142.031 13.8213 142.148 13.6293 142.33 13.416H142.714C142.863 13.416 143.023 13.4107 143.194 13.4C143.706 11.7573 144.228 10.936 144.762 10.936C145.188 10.9467 145.487 11.2187 145.658 11.752C145.7 11.9013 145.748 12.0613 145.802 12.232L145.146 13.384C145.892 13.4053 146.362 13.416 146.554 13.416C146.756 13.416 146.863 13.4373 146.874 13.48C146.895 13.512 146.906 13.5653 146.906 13.64C146.906 13.832 146.858 14.072 146.762 14.36C146.676 14.648 146.575 14.7867 146.458 14.776L144.858 14.696C144.634 15.9973 144.522 17.0747 144.522 17.928C144.522 18.7813 144.644 19.208 144.89 19.208C145.092 19.208 145.46 19.0427 145.994 18.712C146.527 18.3707 146.911 18.0453 147.146 17.736C147.38 17.4267 147.572 17.272 147.722 17.272C147.871 17.272 147.946 17.4533 147.946 17.816C147.946 18.1787 147.818 18.552 147.562 18.936C147.306 19.3093 146.98 19.656 146.586 19.976C146.202 20.2853 145.77 20.5413 145.29 20.744C144.82 20.9467 144.41 21.048 144.058 21.048C143.706 21.048 143.434 20.968 143.242 20.808C143.06 20.6373 142.906 20.4133 142.778 20.136ZM153.504 17.224C153.696 17.224 153.792 17.3893 153.792 17.72C153.792 18.04 153.707 18.3867 153.536 18.76C153.376 19.1333 153.125 19.496 152.784 19.848C152.453 20.1893 152.027 20.4827 151.504 20.728C150.981 20.9733 150.363 21.096 149.648 21.096C148.944 21.096 148.325 20.888 147.792 20.472C147.259 20.0453 146.992 19.4373 146.992 18.648C146.992 17.848 147.115 17.128 147.36 16.488C147.616 15.8373 147.947 15.2773 148.352 14.808C148.768 14.3387 149.237 13.976 149.76 13.72C150.283 13.4533 150.779 13.32 151.248 13.32C152.069 13.32 152.48 13.6453 152.48 14.296C152.48 14.6693 152.4 14.968 152.24 15.192C152.091 15.416 151.936 15.528 151.776 15.528C151.563 15.528 151.376 15.4533 151.216 15.304C151.056 15.1547 150.88 15.08 150.688 15.08C150.496 15.0693 150.309 15.16 150.128 15.352C149.957 15.544 149.813 15.7893 149.696 16.088C149.461 16.6853 149.344 17.384 149.344 18.184C149.355 18.568 149.531 18.856 149.872 19.048C150.107 19.176 150.384 19.2453 150.704 19.256C151.024 19.256 151.328 19.1493 151.616 18.936C151.915 18.7227 152.187 18.4933 152.432 18.248C152.677 17.992 152.891 17.7573 153.072 17.544C153.264 17.3307 153.408 17.224 153.504 17.224ZM158.324 15.624C158.324 15.24 158.094 15.048 157.636 15.048C157.188 15.048 156.745 15.4 156.308 16.104C155.87 16.7973 155.598 17.5067 155.492 18.232C155.513 18.4773 155.534 18.7227 155.556 18.968C155.577 19.2133 155.588 19.4533 155.588 19.688C155.588 20.2533 155.401 20.6373 155.028 20.84C154.857 20.936 154.692 21.0267 154.532 21.112C154.382 21.1973 154.206 21.24 154.004 21.24C153.801 21.24 153.62 21.1067 153.46 20.84C153.31 20.5627 153.236 20.136 153.236 19.56C153.236 17.9493 153.353 16.552 153.588 15.368C153.95 13.5333 154.67 11.5707 155.748 9.48C155.897 9.192 156.116 9.05333 156.404 9.064C156.692 9.064 156.926 9.26133 157.108 9.656C157.289 10.0507 157.374 10.3813 157.364 10.648C157.364 10.9147 157.321 11.176 157.236 11.432C157.161 11.6773 157.06 11.9227 156.932 12.168C156.814 12.4027 156.676 12.648 156.516 12.904C156.366 13.1493 156.217 13.416 156.068 13.704L155.828 14.856C156.244 14.1627 156.804 13.6987 157.508 13.464C157.764 13.3787 158.046 13.336 158.356 13.336C159.081 13.336 159.63 13.5013 160.004 13.832C160.377 14.152 160.564 14.6107 160.564 15.208C160.564 15.7947 160.484 16.392 160.324 17C160.174 17.608 160.062 18.0453 159.988 18.312C159.924 18.568 159.892 18.7813 159.892 18.952C159.892 19.1227 159.95 19.208 160.068 19.208C160.228 19.208 160.425 19.1067 160.66 18.904C160.894 18.7013 161.129 18.4827 161.364 18.248C161.598 18.0027 161.812 17.7787 162.004 17.576C162.206 17.3733 162.345 17.272 162.42 17.272C162.569 17.272 162.644 17.4533 162.644 17.816C162.644 18.5627 162.276 19.2827 161.54 19.976C160.302 20.7013 159.513 21.064 159.172 21.064C159.14 21.064 159.118 21.0587 159.108 21.048C158.254 21.048 157.828 20.3653 157.828 19C157.828 18.4133 157.881 17.8747 157.988 17.384C158.105 16.8933 158.19 16.536 158.244 16.312C158.297 16.088 158.324 15.8587 158.324 15.624Z" fill="black"/>
</g>
<defs>
<clipPath id="clip0_35_226">
<rect width="165" height="32" fill="white"/>
</clipPath>
</defs>
</svg>
