<svg width="165" height="32" viewBox="0 0 165 32" fill="none" xmlns="http://www.w3.org/2000/svg">
<g clip-path="url(#clip0_35_263)">
<path d="M34.248 18.864C35.176 18.864 35.64 19.0987 35.64 19.568C35.64 20.112 35.1067 20.384 34.04 20.384C33.8053 20.384 33.5493 20.3413 33.272 20.256C32.9627 20.4693 32.7227 20.736 32.552 21.056C32.392 21.376 32.312 21.84 32.312 22.448C32.312 23.0453 32.5467 23.488 33.016 23.776C33.496 24.064 34.056 24.208 34.696 24.208C35.3467 24.208 35.8693 24.1067 36.264 23.904C36.6693 23.6907 37.0213 23.4613 37.32 23.216C37.6187 22.9707 37.8587 22.7467 38.04 22.544C38.232 22.3307 38.3707 22.224 38.456 22.224C38.5413 22.224 38.6107 22.2827 38.664 22.4C38.7173 22.5067 38.744 22.6507 38.744 22.832C38.744 23.6853 38.2693 24.4373 37.32 25.088C36.3813 25.728 35.256 26.048 33.944 26.048C31.896 26.048 30.568 25.456 29.96 24.272C29.7467 23.856 29.64 23.3547 29.64 22.768C29.64 21.2427 30.4027 20.176 31.928 19.568C31.1493 19.024 30.76 18.2027 30.76 17.104C30.76 16.5813 30.904 16.096 31.192 15.648C30.9253 15.3493 30.7067 15.0347 30.536 14.704C30.376 14.3733 30.296 14.1227 30.296 13.952C30.296 13.6533 30.4027 13.504 30.616 13.504C30.7653 13.504 30.9467 13.6213 31.16 13.856C31.384 14.08 31.5653 14.2613 31.704 14.4C31.8427 14.5387 31.9867 14.6507 32.136 14.736C33.0427 14.1813 34.1093 13.904 35.336 13.904C36.5627 13.904 37.3787 14.2453 37.784 14.928C37.9333 15.184 38.008 15.4987 38.008 15.872C38.008 16.4373 37.7627 16.912 37.272 17.296C36.7813 17.68 36.136 17.872 35.336 17.872C34.536 17.872 33.7893 17.616 33.096 17.104C33.0853 17.1467 33.08 17.1893 33.08 17.232V17.584C33.08 17.776 33.1387 18.0053 33.256 18.272C33.384 18.528 33.5387 18.7413 33.72 18.912C33.88 18.88 34.056 18.864 34.248 18.864ZM36.232 16.112C36.232 15.696 35.8907 15.488 35.208 15.488C34.5253 15.488 33.976 15.696 33.56 16.112C34.136 16.464 34.7227 16.64 35.32 16.64C35.928 16.64 36.232 16.464 36.232 16.112ZM40.0768 18.016C40.4608 18.016 40.8234 18.384 41.1648 19.12C41.6661 18.5973 42.2848 18.336 43.0208 18.336C43.7674 18.336 44.3274 18.5013 44.7008 18.832C45.0741 19.152 45.2608 19.6107 45.2608 20.208C45.2608 20.7947 45.1808 21.392 45.0208 22C44.8714 22.608 44.7594 23.0453 44.6848 23.312C44.6208 23.568 44.5888 23.7813 44.5888 23.952C44.5888 24.1227 44.6474 24.208 44.7648 24.208C44.9248 24.208 45.1221 24.1067 45.3568 23.904C45.5914 23.7013 45.8261 23.4827 46.0608 23.248C46.2954 23.0027 46.5088 22.7787 46.7008 22.576C46.9034 22.3733 47.0421 22.272 47.1168 22.272C47.2661 22.272 47.3408 22.4533 47.3408 22.816C47.3408 23.5627 46.9728 24.2827 46.2368 24.976C44.9994 25.7013 44.2101 26.064 43.8688 26.064C43.8368 26.064 43.8154 26.0587 43.8048 26.048C42.9514 26.048 42.5248 25.3653 42.5248 24C42.5248 23.4133 42.5781 22.8747 42.6848 22.384C42.8021 21.8933 42.8874 21.536 42.9408 21.312C42.9941 21.088 43.0208 20.8587 43.0208 20.624C43.0208 20.24 42.7968 20.048 42.3488 20.048C41.9114 20.048 41.4901 20.3787 41.0848 21.04C40.6901 21.6907 40.4234 22.368 40.2848 23.072V23.184C40.2848 23.5467 40.3381 23.92 40.4448 24.304C40.5621 24.688 40.6208 24.9547 40.6208 25.104C40.6208 25.4667 40.1674 25.824 39.2608 26.176C39.1221 26.2293 38.9994 26.256 38.8928 26.256C38.6261 26.256 38.4394 26.1173 38.3328 25.84C38.2368 25.5627 38.1888 25.1307 38.1888 24.544C38.1888 23.0293 38.2474 21.936 38.3648 21.264C38.5248 20.2613 38.8874 19.328 39.4528 18.464C39.6448 18.1653 39.8528 18.016 40.0768 18.016ZM52.6705 18.72C52.8198 18.2507 53.0598 18.016 53.3905 18.016C53.6892 18.0267 53.9718 18.24 54.2385 18.656C54.5052 19.0613 54.6385 19.376 54.6385 19.6C54.6172 20.0373 54.4838 20.736 54.2385 21.696C53.9932 22.6453 53.6465 23.8827 53.1985 25.408C53.9025 24.864 54.5958 24.1547 55.2785 23.28C55.5132 22.9813 55.7105 22.7413 55.8705 22.56C56.0412 22.368 56.1798 22.272 56.2865 22.272C56.4358 22.272 56.5105 22.4427 56.5105 22.784C56.5105 23.456 56.1318 24.24 55.3745 25.136C54.6278 26.032 53.7105 26.7307 52.6225 27.232C52.4945 27.6587 52.3558 28.064 52.2065 28.448C52.0572 28.832 51.8652 29.168 51.6305 29.456C51.1185 30.0747 50.3398 30.384 49.2945 30.384C48.5905 30.384 47.9878 30.1813 47.4865 29.776C46.9958 29.3707 46.7505 28.864 46.7505 28.256C46.7505 27.9253 46.8572 27.664 47.0705 27.472C47.2945 27.28 47.5985 27.1253 47.9825 27.008C48.3665 26.8907 48.8145 26.7893 49.3265 26.704C49.8492 26.6187 50.4038 26.512 50.9905 26.384C51.0438 26.2027 51.0865 26.0267 51.1185 25.856C51.1612 25.6747 51.2038 25.4933 51.2465 25.312C50.6598 25.856 49.9398 26.128 49.0865 26.128C48.2438 26.128 47.5932 25.8933 47.1345 25.424C46.6758 24.9547 46.4518 24.384 46.4625 23.712C46.4625 21.8987 47.0652 20.4693 48.2705 19.424C49.1025 18.7093 49.9665 18.352 50.8625 18.352C51.1718 18.352 51.5025 18.3893 51.8545 18.464C52.2172 18.5387 52.4892 18.624 52.6705 18.72ZM48.8145 23.184C48.8145 24.0053 49.1185 24.416 49.7265 24.416C50.0678 24.416 50.4145 24.288 50.7665 24.032C51.1185 23.776 51.4012 23.36 51.6145 22.784C51.7745 22.0373 51.9398 21.3493 52.1105 20.72C52.2918 20.0907 52.4145 19.6533 52.4785 19.408C51.5825 19.5253 50.7452 19.9253 49.9665 20.608C49.1985 21.2907 48.8145 22.1493 48.8145 23.184ZM50.4945 27.856C50.1105 27.9307 49.7745 27.9893 49.4865 28.032C49.1985 28.0747 48.9585 28.112 48.7665 28.144C48.5852 28.176 48.4465 28.2133 48.3505 28.256C48.2652 28.2987 48.2225 28.368 48.2225 28.464C48.2225 28.656 48.3398 28.8213 48.5745 28.96C48.8198 29.0987 49.0598 29.1627 49.2945 29.152C49.6998 29.152 50.0998 28.72 50.4945 27.856ZM65.5384 22.224C65.7304 22.224 65.8264 22.4693 65.8264 22.96C65.8264 23.2267 65.7144 23.552 65.4904 23.936C65.2664 24.3093 64.973 24.656 64.6104 24.976C64.2584 25.2853 63.8637 25.5413 63.4264 25.744C62.989 25.9467 62.5624 26.048 62.1464 26.048C61.581 26.048 61.2024 25.552 61.0104 24.56C60.733 25.0187 60.3704 25.3973 59.9224 25.696C59.4744 25.984 58.8717 26.128 58.1144 26.128C57.3677 26.128 56.765 25.8933 56.3064 25.424C55.8477 24.9547 55.6237 24.384 55.6344 23.712C55.6344 21.8987 56.237 20.4693 57.4424 19.424C57.9544 18.9867 58.429 18.6987 58.8664 18.56C59.3144 18.4213 59.7837 18.352 60.2744 18.352C60.765 18.352 61.165 18.4373 61.4744 18.608C61.6237 18.2987 61.7944 18.144 61.9864 18.144C62.3597 18.144 62.7117 18.3093 63.0424 18.64C63.3837 18.96 63.5544 19.264 63.5544 19.552C63.405 19.904 63.1864 20.3253 62.8984 20.816C62.813 21.3067 62.7704 21.9947 62.7704 22.88C62.7704 23.7653 62.8824 24.208 63.1064 24.208C63.3837 24.208 64.0557 23.6533 65.1224 22.544C65.3144 22.3307 65.453 22.224 65.5384 22.224ZM57.9864 23.184C57.9864 24.0053 58.2904 24.416 58.8984 24.416C59.549 24.4053 60.0877 24.0587 60.5144 23.376C60.6637 23.1413 60.7864 22.8533 60.8824 22.512C60.8824 21.3173 60.989 20.2933 61.2024 19.44C60.3384 19.6107 59.5864 20.0267 58.9464 20.688C58.3064 21.3493 57.9864 22.1813 57.9864 23.184ZM70.0029 19.248C70.0029 18.5333 70.5575 18.176 71.6669 18.176C71.9442 18.176 72.1149 18.2667 72.1789 18.448C72.2535 18.6293 72.2909 18.9067 72.2909 19.28C72.2909 19.8027 72.1735 20.6133 71.9389 21.712C71.7042 22.8107 71.5922 23.552 71.6029 23.936C71.6029 24.1173 71.6615 24.208 71.7789 24.208C71.9389 24.208 72.1362 24.1067 72.3709 23.904C72.6055 23.7013 72.8402 23.4827 73.0749 23.248C73.3095 23.0027 73.5229 22.7787 73.7149 22.576C73.9175 22.3733 74.0562 22.272 74.1309 22.272C74.2802 22.272 74.3549 22.4533 74.3549 22.816C74.3549 23.5627 73.9869 24.2827 73.2509 24.976C72.0135 25.7013 71.2295 26.064 70.8989 26.064C70.8669 26.064 70.8402 26.0587 70.8189 26.048C70.4135 26.048 70.1255 25.9147 69.9549 25.648C69.7949 25.3813 69.6935 25.0453 69.6509 24.64C69.4375 25.0347 69.1442 25.376 68.7709 25.664C68.3975 25.9413 67.9709 26.08 67.4909 26.08C66.6482 26.08 65.9975 25.92 65.5389 25.6C65.0909 25.28 64.8669 24.8053 64.8669 24.176C64.8669 23.8987 64.9042 23.6427 64.9789 23.408C65.0642 23.1733 65.1975 22.8853 65.3789 22.544L65.8429 18.608C66.1735 18.352 66.6482 18.224 67.2669 18.224C67.7575 18.224 68.0349 18.544 68.0989 19.184C68.1522 19.7067 68.1255 20.176 68.0189 20.592C67.9229 20.9973 67.7895 21.5147 67.6189 22.144C67.4482 22.7627 67.3629 23.312 67.3629 23.792C67.3629 24.176 67.6029 24.368 68.0829 24.368C68.6055 24.368 69.0589 23.9093 69.4429 22.992C69.7415 22.288 69.9442 21.504 70.0509 20.64C70.0402 20.5547 70.0295 20.448 70.0189 20.32C70.0189 20.1813 70.0135 20.048 70.0029 19.92C70.0029 19.792 70.0029 19.664 70.0029 19.536V19.248ZM79.6861 18.72C79.8355 18.2507 80.0755 18.016 80.4061 18.016C80.7048 18.0267 80.9875 18.24 81.2541 18.656C81.5208 19.0613 81.6541 19.376 81.6541 19.6C81.6328 20.0373 81.4995 20.736 81.2541 21.696C81.0088 22.6453 80.6621 23.8827 80.2141 25.408C80.9181 24.864 81.6115 24.1547 82.2941 23.28C82.5288 22.9813 82.7261 22.7413 82.8861 22.56C83.0568 22.368 83.1955 22.272 83.3021 22.272C83.4515 22.272 83.5261 22.4427 83.5261 22.784C83.5261 23.456 83.1475 24.24 82.3901 25.136C81.6435 26.032 80.7261 26.7307 79.6381 27.232C79.5101 27.6587 79.3715 28.064 79.2221 28.448C79.0728 28.832 78.8808 29.168 78.6461 29.456C78.1341 30.0747 77.3555 30.384 76.3101 30.384C75.6061 30.384 75.0035 30.1813 74.5021 29.776C74.0115 29.3707 73.7661 28.864 73.7661 28.256C73.7661 27.9253 73.8728 27.664 74.0861 27.472C74.3101 27.28 74.6141 27.1253 74.9981 27.008C75.3821 26.8907 75.8301 26.7893 76.3421 26.704C76.8648 26.6187 77.4195 26.512 78.0061 26.384C78.0595 26.2027 78.1021 26.0267 78.1341 25.856C78.1768 25.6747 78.2195 25.4933 78.2621 25.312C77.6755 25.856 76.9555 26.128 76.1021 26.128C75.2595 26.128 74.6088 25.8933 74.1501 25.424C73.6915 24.9547 73.4675 24.384 73.4781 23.712C73.4781 21.8987 74.0808 20.4693 75.2861 19.424C76.1181 18.7093 76.9821 18.352 77.8781 18.352C78.1875 18.352 78.5181 18.3893 78.8701 18.464C79.2328 18.5387 79.5048 18.624 79.6861 18.72ZM75.8301 23.184C75.8301 24.0053 76.1341 24.416 76.7421 24.416C77.0835 24.416 77.4301 24.288 77.7821 24.032C78.1341 23.776 78.4168 23.36 78.6301 22.784C78.7901 22.0373 78.9555 21.3493 79.1261 20.72C79.3075 20.0907 79.4301 19.6533 79.4941 19.408C78.5981 19.5253 77.7608 19.9253 76.9821 20.608C76.2141 21.2907 75.8301 22.1493 75.8301 23.184ZM77.5101 27.856C77.1261 27.9307 76.7901 27.9893 76.5021 28.032C76.2141 28.0747 75.9741 28.112 75.7821 28.144C75.6008 28.176 75.4621 28.2133 75.3661 28.256C75.2808 28.2987 75.2381 28.368 75.2381 28.464C75.2381 28.656 75.3555 28.8213 75.5901 28.96C75.8355 29.0987 76.0755 29.1627 76.3101 29.152C76.7155 29.152 77.1155 28.72 77.5101 27.856ZM84.65 26.048C83.5833 26.048 83.05 25.0507 83.05 23.056C83.05 21.968 83.1833 20.9813 83.45 20.096C83.866 18.7307 84.3353 18.048 84.858 18.048C85.1673 18.048 85.4127 18.256 85.594 18.672C85.7433 18.992 85.8127 19.3067 85.802 19.616C85.802 20.0427 85.674 20.7947 85.418 21.872C85.1727 22.8107 85.05 23.392 85.05 23.616C85.05 23.84 85.1033 23.9947 85.21 24.08C85.3273 24.1653 85.4607 24.208 85.61 24.208C85.77 24.208 85.9673 24.1067 86.202 23.904C86.4367 23.7013 86.6713 23.4827 86.906 23.248C87.1407 23.0027 87.354 22.7787 87.546 22.576C87.7487 22.3733 87.8873 22.272 87.962 22.272C88.1113 22.272 88.186 22.4533 88.186 22.816C88.186 23.5627 87.8073 24.2933 87.05 25.008C86.3033 25.712 85.5033 26.0587 84.65 26.048ZM85.306 16.752C85.018 16.3253 84.874 15.8667 84.874 15.376C84.874 14.8853 84.9487 14.48 85.098 14.16C85.258 13.8293 85.4073 13.5893 85.546 13.44C85.6847 13.28 85.8447 13.2 86.026 13.2C86.3247 13.2 86.5967 13.424 86.842 13.872C87.0873 14.3093 87.21 14.6773 87.21 14.976C87.21 15.5307 87.0127 15.968 86.618 16.288C86.234 16.5973 85.7967 16.752 85.306 16.752ZM89.5143 18.016C89.8983 18.016 90.2609 18.384 90.6023 19.12C91.1036 18.5973 91.7223 18.336 92.4583 18.336C93.2049 18.336 93.7649 18.5013 94.1383 18.832C94.5116 19.152 94.6983 19.6107 94.6983 20.208C94.6983 20.7947 94.6183 21.392 94.4583 22C94.3089 22.608 94.1969 23.0453 94.1223 23.312C94.0583 23.568 94.0263 23.7813 94.0263 23.952C94.0263 24.1227 94.0849 24.208 94.2023 24.208C94.3623 24.208 94.5596 24.1067 94.7943 23.904C95.0289 23.7013 95.2636 23.4827 95.4983 23.248C95.7329 23.0027 95.9463 22.7787 96.1383 22.576C96.3409 22.3733 96.4796 22.272 96.5543 22.272C96.7036 22.272 96.7783 22.4533 96.7783 22.816C96.7783 23.5627 96.4103 24.2827 95.6743 24.976C94.4369 25.7013 93.6476 26.064 93.3063 26.064C93.2743 26.064 93.2529 26.0587 93.2423 26.048C92.3889 26.048 91.9623 25.3653 91.9623 24C91.9623 23.4133 92.0156 22.8747 92.1223 22.384C92.2396 21.8933 92.3249 21.536 92.3783 21.312C92.4316 21.088 92.4583 20.8587 92.4583 20.624C92.4583 20.24 92.2343 20.048 91.7863 20.048C91.3489 20.048 90.9276 20.3787 90.5223 21.04C90.1276 21.6907 89.8609 22.368 89.7223 23.072V23.184C89.7223 23.5467 89.7756 23.92 89.8823 24.304C89.9996 24.688 90.0583 24.9547 90.0583 25.104C90.0583 25.4667 89.6049 25.824 88.6983 26.176C88.5596 26.2293 88.4369 26.256 88.3303 26.256C88.0636 26.256 87.8769 26.1173 87.7703 25.84C87.6743 25.5627 87.6263 25.1307 87.6263 24.544C87.6263 23.0293 87.6849 21.936 87.8023 21.264C87.9623 20.2613 88.3249 19.328 88.8903 18.464C89.0823 18.1653 89.2903 18.016 89.5143 18.016ZM102.108 18.72C102.257 18.2507 102.497 18.016 102.828 18.016C103.127 18.0267 103.409 18.24 103.676 18.656C103.943 19.0613 104.076 19.376 104.076 19.6C104.055 20.0373 103.921 20.736 103.676 21.696C103.431 22.6453 103.084 23.8827 102.636 25.408C103.34 24.864 104.033 24.1547 104.716 23.28C104.951 22.9813 105.148 22.7413 105.308 22.56C105.479 22.368 105.617 22.272 105.724 22.272C105.873 22.272 105.948 22.4427 105.948 22.784C105.948 23.456 105.569 24.24 104.812 25.136C104.065 26.032 103.148 26.7307 102.06 27.232C101.932 27.6587 101.793 28.064 101.644 28.448C101.495 28.832 101.303 29.168 101.068 29.456C100.556 30.0747 99.7773 30.384 98.732 30.384C98.028 30.384 97.4253 30.1813 96.924 29.776C96.4333 29.3707 96.188 28.864 96.188 28.256C96.188 27.9253 96.2947 27.664 96.508 27.472C96.732 27.28 97.036 27.1253 97.42 27.008C97.804 26.8907 98.252 26.7893 98.764 26.704C99.2867 26.6187 99.8413 26.512 100.428 26.384C100.481 26.2027 100.524 26.0267 100.556 25.856C100.599 25.6747 100.641 25.4933 100.684 25.312C100.097 25.856 99.3773 26.128 98.524 26.128C97.6813 26.128 97.0307 25.8933 96.572 25.424C96.1133 24.9547 95.8893 24.384 95.9 23.712C95.9 21.8987 96.5027 20.4693 97.708 19.424C98.54 18.7093 99.404 18.352 100.3 18.352C100.609 18.352 100.94 18.3893 101.292 18.464C101.655 18.5387 101.927 18.624 102.108 18.72ZM98.252 23.184C98.252 24.0053 98.556 24.416 99.164 24.416C99.5053 24.416 99.852 24.288 100.204 24.032C100.556 23.776 100.839 23.36 101.052 22.784C101.212 22.0373 101.377 21.3493 101.548 20.72C101.729 20.0907 101.852 19.6533 101.916 19.408C101.02 19.5253 100.183 19.9253 99.404 20.608C98.636 21.2907 98.252 22.1493 98.252 23.184ZM99.932 27.856C99.548 27.9307 99.212 27.9893 98.924 28.032C98.636 28.0747 98.396 28.112 98.204 28.144C98.0227 28.176 97.884 28.2133 97.788 28.256C97.7027 28.2987 97.66 28.368 97.66 28.464C97.66 28.656 97.7773 28.8213 98.012 28.96C98.2573 29.0987 98.4973 29.1627 98.732 29.152C99.1373 29.152 99.5373 28.72 99.932 27.856ZM113.782 22.624C113.782 23.552 114.177 24.016 114.966 24.016C115.83 24.016 116.411 23.7173 116.71 23.12C116.817 22.9067 116.87 22.6347 116.87 22.304C116.87 21.9627 116.79 21.648 116.63 21.36C116.363 20.9013 115.905 20.3947 115.254 19.84C114.177 18.9227 113.638 17.9733 113.638 16.992C113.638 16 113.947 15.2373 114.566 14.704C115.185 14.1707 115.894 13.904 116.694 13.904C117.494 13.904 118.129 14.1067 118.598 14.512C119.067 14.9173 119.302 15.5253 119.302 16.336C119.302 16.8693 119.121 17.3333 118.758 17.728C118.406 18.1227 117.937 18.368 117.35 18.464C117.617 18.688 117.883 18.9173 118.15 19.152C118.406 19.3867 118.641 19.6427 118.854 19.92C119.323 20.5493 119.558 21.3013 119.558 22.176C119.558 22.784 119.414 23.3333 119.126 23.824C118.849 24.3147 118.481 24.7307 118.022 25.072C117.574 25.4027 117.067 25.6587 116.502 25.84C115.937 26.0213 115.409 26.112 114.918 26.112C113.873 26.112 113.062 25.872 112.486 25.392C111.814 24.848 111.478 24.064 111.478 23.04C111.478 22.368 111.697 21.7173 112.134 21.088C112.571 20.4587 113.035 20.144 113.526 20.144C113.91 20.144 114.102 20.2613 114.102 20.496C114.102 20.8373 114.049 21.1787 113.942 21.52C113.835 21.8507 113.782 22.2187 113.782 22.624ZM116.886 18.08C117.494 17.472 117.798 16.8373 117.798 16.176C117.798 15.9733 117.691 15.8027 117.478 15.664C117.243 15.536 116.998 15.472 116.742 15.472C116.166 15.472 115.75 15.6587 115.494 16.032C115.622 16.4907 115.809 16.88 116.054 17.2C116.31 17.52 116.587 17.8133 116.886 18.08ZM123.211 18.96C123.211 19.6747 123.083 20.4853 122.827 21.392C122.848 21.7333 122.859 22.064 122.859 22.384C122.88 23.0667 122.966 23.536 123.115 23.792C123.222 23.9307 123.36 24 123.531 24C123.862 24 124.272 23.7653 124.763 23.296C124.39 22.4107 124.203 21.6107 124.203 20.896C124.203 19.4347 124.891 18.704 126.267 18.704C126.736 18.704 127.126 18.8427 127.435 19.12C127.755 19.3867 127.915 19.7227 127.915 20.128C127.915 20.9813 127.44 22.0053 126.491 23.2C126.886 23.6693 127.206 23.9413 127.451 24.016C127.803 24.016 128.331 23.3653 129.035 22.064C128.907 21.584 128.843 21.136 128.843 20.72C128.843 19.9627 128.96 19.408 129.195 19.056C129.483 18.608 129.958 18.384 130.619 18.384C131.291 18.384 131.67 18.656 131.755 19.2C131.776 19.36 131.787 19.5307 131.787 19.712C131.787 20.3947 131.408 21.3387 130.651 22.544C130.918 22.928 131.168 23.1573 131.403 23.232C131.894 23.232 132.31 23.0667 132.651 22.736C132.779 22.6187 132.886 22.512 132.971 22.416C133.067 22.3093 133.163 22.256 133.259 22.256C133.408 22.256 133.483 22.432 133.483 22.784C133.483 23.4347 133.291 23.9147 132.907 24.224C132.523 24.5333 132.022 24.688 131.403 24.688C130.784 24.688 130.246 24.3893 129.787 23.792C129.232 24.5173 128.774 25.024 128.411 25.312C127.75 25.856 127.232 26.128 126.859 26.128C126.678 26.128 126.443 25.9787 126.155 25.68C125.878 25.3707 125.6 24.9707 125.323 24.48C124.811 24.96 124.304 25.3547 123.803 25.664C123.302 25.9733 122.88 26.128 122.539 26.128C121.92 26.128 121.398 24.784 120.971 22.096C120.822 21.1787 120.747 20.5493 120.747 20.208C120.768 19.504 120.864 19.0133 121.035 18.736C121.27 18.3947 121.728 18.224 122.411 18.224C122.667 18.224 122.864 18.304 123.003 18.464C123.142 18.6133 123.211 18.7787 123.211 18.96ZM125.947 21.84C126.299 21.296 126.475 20.864 126.475 20.544C126.475 20.2133 126.363 20.048 126.139 20.048C125.99 20.048 125.894 20.1333 125.851 20.304C125.819 20.464 125.803 20.6773 125.803 20.944C125.803 21.2107 125.851 21.5093 125.947 21.84ZM142.585 22.224C142.777 22.224 142.873 22.4693 142.873 22.96C142.873 23.2267 142.761 23.552 142.537 23.936C142.313 24.3093 142.02 24.656 141.657 24.976C141.305 25.2853 140.911 25.5413 140.473 25.744C140.036 25.9467 139.609 26.048 139.193 26.048C138.628 26.048 138.249 25.552 138.057 24.56C137.78 25.0187 137.417 25.3973 136.969 25.696C136.521 25.984 135.919 26.128 135.161 26.128C134.415 26.128 133.812 25.8933 133.353 25.424C132.895 24.9547 132.671 24.384 132.681 23.712C132.681 21.8987 133.284 20.4693 134.489 19.424C135.001 18.9867 135.476 18.6987 135.913 18.56C136.361 18.4213 136.831 18.352 137.321 18.352C137.812 18.352 138.212 18.4373 138.521 18.608C138.671 18.2987 138.841 18.144 139.033 18.144C139.407 18.144 139.759 18.3093 140.089 18.64C140.431 18.96 140.601 19.264 140.601 19.552C140.452 19.904 140.233 20.3253 139.945 20.816C139.86 21.3067 139.817 21.9947 139.817 22.88C139.817 23.7653 139.929 24.208 140.153 24.208C140.431 24.208 141.103 23.6533 142.169 22.544C142.361 22.3307 142.5 22.224 142.585 22.224ZM135.033 23.184C135.033 24.0053 135.337 24.416 135.945 24.416C136.596 24.4053 137.135 24.0587 137.561 23.376C137.711 23.1413 137.833 22.8533 137.929 22.512C137.929 21.3173 138.036 20.2933 138.249 19.44C137.385 19.6107 136.633 20.0267 135.993 20.688C135.353 21.3493 135.033 22.1813 135.033 23.184ZM142.778 25.136C142.66 24.848 142.575 24.5173 142.522 24.144C142.468 23.76 142.442 23.2267 142.442 22.544C142.442 21.8613 142.57 20.9387 142.826 19.776H142.106C141.978 19.776 141.914 19.7227 141.914 19.616C141.914 19.36 141.935 19.152 141.978 18.992C142.031 18.8213 142.148 18.6293 142.33 18.416H142.714C142.863 18.416 143.023 18.4107 143.194 18.4C143.706 16.7573 144.228 15.936 144.762 15.936C145.188 15.9467 145.487 16.2187 145.658 16.752C145.7 16.9013 145.748 17.0613 145.802 17.232L145.146 18.384C145.892 18.4053 146.362 18.416 146.554 18.416C146.756 18.416 146.863 18.4373 146.874 18.48C146.895 18.512 146.906 18.5653 146.906 18.64C146.906 18.832 146.858 19.072 146.762 19.36C146.676 19.648 146.575 19.7867 146.458 19.776L144.858 19.696C144.634 20.9973 144.522 22.0747 144.522 22.928C144.522 23.7813 144.644 24.208 144.89 24.208C145.092 24.208 145.46 24.0427 145.994 23.712C146.527 23.3707 146.911 23.0453 147.146 22.736C147.38 22.4267 147.572 22.272 147.722 22.272C147.871 22.272 147.946 22.4533 147.946 22.816C147.946 23.1787 147.818 23.552 147.562 23.936C147.306 24.3093 146.98 24.656 146.586 24.976C146.202 25.2853 145.77 25.5413 145.29 25.744C144.82 25.9467 144.41 26.048 144.058 26.048C143.706 26.048 143.434 25.968 143.242 25.808C143.06 25.6373 142.906 25.4133 142.778 25.136ZM153.504 22.224C153.696 22.224 153.792 22.3893 153.792 22.72C153.792 23.04 153.707 23.3867 153.536 23.76C153.376 24.1333 153.125 24.496 152.784 24.848C152.453 25.1893 152.027 25.4827 151.504 25.728C150.981 25.9733 150.363 26.096 149.648 26.096C148.944 26.096 148.325 25.888 147.792 25.472C147.259 25.0453 146.992 24.4373 146.992 23.648C146.992 22.848 147.115 22.128 147.36 21.488C147.616 20.8373 147.947 20.2773 148.352 19.808C148.768 19.3387 149.237 18.976 149.76 18.72C150.283 18.4533 150.779 18.32 151.248 18.32C152.069 18.32 152.48 18.6453 152.48 19.296C152.48 19.6693 152.4 19.968 152.24 20.192C152.091 20.416 151.936 20.528 151.776 20.528C151.563 20.528 151.376 20.4533 151.216 20.304C151.056 20.1547 150.88 20.08 150.688 20.08C150.496 20.0693 150.309 20.16 150.128 20.352C149.957 20.544 149.813 20.7893 149.696 21.088C149.461 21.6853 149.344 22.384 149.344 23.184C149.355 23.568 149.531 23.856 149.872 24.048C150.107 24.176 150.384 24.2453 150.704 24.256C151.024 24.256 151.328 24.1493 151.616 23.936C151.915 23.7227 152.187 23.4933 152.432 23.248C152.677 22.992 152.891 22.7573 153.072 22.544C153.264 22.3307 153.408 22.224 153.504 22.224ZM158.324 20.624C158.324 20.24 158.094 20.048 157.636 20.048C157.188 20.048 156.745 20.4 156.308 21.104C155.87 21.7973 155.598 22.5067 155.492 23.232C155.513 23.4773 155.534 23.7227 155.556 23.968C155.577 24.2133 155.588 24.4533 155.588 24.688C155.588 25.2533 155.401 25.6373 155.028 25.84C154.857 25.936 154.692 26.0267 154.532 26.112C154.382 26.1973 154.206 26.24 154.004 26.24C153.801 26.24 153.62 26.1067 153.46 25.84C153.31 25.5627 153.236 25.136 153.236 24.56C153.236 22.9493 153.353 21.552 153.588 20.368C153.95 18.5333 154.67 16.5707 155.748 14.48C155.897 14.192 156.116 14.0533 156.404 14.064C156.692 14.064 156.926 14.2613 157.108 14.656C157.289 15.0507 157.374 15.3813 157.364 15.648C157.364 15.9147 157.321 16.176 157.236 16.432C157.161 16.6773 157.06 16.9227 156.932 17.168C156.814 17.4027 156.676 17.648 156.516 17.904C156.366 18.1493 156.217 18.416 156.068 18.704L155.828 19.856C156.244 19.1627 156.804 18.6987 157.508 18.464C157.764 18.3787 158.046 18.336 158.356 18.336C159.081 18.336 159.63 18.5013 160.004 18.832C160.377 19.152 160.564 19.6107 160.564 20.208C160.564 20.7947 160.484 21.392 160.324 22C160.174 22.608 160.062 23.0453 159.988 23.312C159.924 23.568 159.892 23.7813 159.892 23.952C159.892 24.1227 159.95 24.208 160.068 24.208C160.228 24.208 160.425 24.1067 160.66 23.904C160.894 23.7013 161.129 23.4827 161.364 23.248C161.598 23.0027 161.812 22.7787 162.004 22.576C162.206 22.3733 162.345 22.272 162.42 22.272C162.569 22.272 162.644 22.4533 162.644 22.816C162.644 23.5627 162.276 24.2827 161.54 24.976C160.302 25.7013 159.513 26.064 159.172 26.064C159.14 26.064 159.118 26.0587 159.108 26.048C158.254 26.048 157.828 25.3653 157.828 24C157.828 23.4133 157.881 22.8747 157.988 22.384C158.105 21.8933 158.19 21.536 158.244 21.312C158.297 21.088 158.324 20.8587 158.324 20.624Z" fill="black"/>
<circle cx="14.5" cy="14.5" r="11.5" stroke="black" stroke-width="2"/>
<path d="M4.99998 21.5C3.5 21.5 -0.999972 27.4999 9.5 29C20 30.5 30.5 24.0001 33 25" stroke="black" stroke-width="2"/>
<path d="M5.32011 7.6161C14.7323 7.05021 22.966 15.1571 23.1233 22.4521" stroke="black" stroke-width="2"/>
<path d="M3.78106 9.6509C12.0603 10.0925 20.1458 17.7869 21 24" stroke="black" stroke-width="2"/>
<path d="M2.99998 13.5619C10.4929 13.5651 17.4547 20.291 17.9258 26" stroke="black" stroke-width="2"/>
<path d="M7.99992 24.5001C8.25184 21.6769 8.99994 18.0001 10.9999 16" stroke="black" stroke-width="2"/>
<path d="M11.4283 26.0002C11.4509 23.4748 12.2485 20.9501 13.4283 19.0001" stroke="black" stroke-width="2"/>
<path d="M15 26C15.0304 24.2002 15.6125 22.3964 16.4635 21" stroke="black" stroke-width="2"/>
<path d="M5.99997 7C7.36361 6.6345 10.7633 5.98054 13.6948 6.00044C16.7678 6.02131 19.5 7 21 8" stroke="black" stroke-width="2"/>
<path d="M15.5 10.5001C18 7.58208 24.0678 7.58215 24.0678 7.58215" stroke="black" stroke-width="2"/>
<path d="M19 12.5C21.5 11 25.5 10.9999 25.5 10.9999" stroke="black" stroke-width="2"/>
<path d="M20.9999 16C22.9967 13.8722 26.6548 14.644 26.6548 14.644" stroke="black" stroke-width="2"/>
<path d="M3.49997 18.5C3.99997 18.5001 6.99997 15.9999 10.5 16.5" stroke="black" stroke-width="2"/>
<path d="M22 17C22 17 24 17 24.7497 18L25.5 18.5" stroke="black" stroke-width="2"/>
</g>
<defs>
<clipPath id="clip0_35_263">
<rect width="165" height="32" fill="white"/>
</clipPath>
</defs>
</svg>
